<svg width="3840" height="3840" viewBox="0 0 3840 3840" fill="none" xmlns="http://www.w3.org/2000/svg">
<path d="M1937.11 19.6062C1939.16 20.0567 1941.21 20.4769 1943.27 20.8965C1955.69 23.5653 1964.99 29.3759 1975.1 36.9062C1978.79 39.5675 1982.59 42.0086 1986.43 44.4405C1990.64 47.1149 1994.81 49.8533 1998.95 52.6328C2006.94 57.9708 2014.96 63.2397 2023 68.5C2031.56 74.1022 2040.1 79.7232 2048.61 85.405C2054.48 89.3289 2060.39 93.2039 2066.31 97.0625C2067.33 97.7244 2068.34 98.3863 2069.38 99.0683C2070.83 100.011 2070.83 100.011 2072.3 100.973C2073.16 101.532 2074.02 102.092 2074.9 102.668C2076.94 104.014 2076.94 104.014 2079 105C2079 105.66 2079 106.32 2079 107C2080.08 107.398 2080.08 107.398 2081.19 107.805C2084.03 109.013 2086.41 110.428 2088.99 112.125C2089.94 112.744 2090.88 113.363 2091.86 114.001C2092.85 114.661 2093.85 115.32 2094.88 116C2095.9 116.677 2096.93 117.354 2098 118.051C2101 120.029 2104 122.013 2107 124C2107.76 124.502 2108.52 125.004 2109.3 125.522C2112.93 127.928 2116.54 130.346 2120.16 132.769C2132.57 141.076 2145.03 149.297 2157.5 157.5C2170.9 166.31 2184.27 175.155 2197.59 184.074C2206.91 190.307 2216.27 196.45 2225.66 202.562C2232.24 206.846 2238.8 211.167 2245.32 215.536C2248.75 217.831 2252.18 220.12 2255.61 222.406C2260.94 225.957 2266.26 229.511 2271.59 233.068C2275.22 235.49 2278.84 237.911 2282.47 240.333C2284.33 241.574 2286.19 242.816 2288.05 244.058C2301.36 252.964 2301.36 252.964 2314.83 261.628C2318.01 263.636 2321.13 265.717 2324.25 267.812C2324.88 268.233 2325.51 268.653 2326.15 269.086C2328.72 270.805 2331.29 272.526 2333.86 274.247C2341.04 279.056 2348.24 283.819 2355.5 288.5C2362.77 293.185 2369.97 297.953 2377.16 302.766C2380.27 304.849 2383.38 306.924 2386.5 309C2387.75 309.833 2389 310.667 2390.25 311.5C2391.18 312.119 2391.18 312.119 2392.12 312.75C2397.75 316.5 2397.75 316.5 2399.62 317.75C2400.88 318.584 2402.13 319.418 2403.38 320.252C2406.48 322.32 2409.58 324.389 2412.68 326.465C2419.13 330.781 2425.6 335.049 2432.12 339.25C2441.38 345.214 2450.54 351.33 2459.69 357.455C2461.67 358.781 2463.66 360.103 2465.65 361.422C2471.01 364.981 2476.32 368.6 2481.55 372.359C2484.02 374.015 2486.58 375.453 2489.17 376.911C2492.87 379.113 2496.28 381.736 2499.75 384.289C2503.12 386.739 2506.51 388.908 2510.16 390.936C2513.72 392.993 2517.09 395.329 2520.5 397.625C2522.1 398.695 2523.69 399.766 2525.29 400.836C2526.48 401.634 2526.48 401.634 2527.69 402.448C2531.08 404.724 2534.48 406.987 2537.88 409.25C2539.1 410.065 2540.32 410.88 2541.54 411.695C2542.41 412.276 2542.41 412.276 2543.3 412.868C2551.19 418.125 2551.19 418.125 2553.95 419.966C2555.84 421.224 2557.72 422.482 2559.61 423.739C2564.72 427.142 2569.82 430.547 2574.92 433.956C2577.75 435.844 2580.57 437.731 2583.4 439.618C2584.84 440.582 2586.29 441.547 2587.73 442.512C2595.33 447.594 2602.95 452.644 2610.68 457.527C2613.9 459.572 2617.08 461.684 2620.25 463.812C2620.88 464.233 2621.51 464.653 2622.15 465.086C2624.72 466.805 2627.29 468.526 2629.86 470.247C2637.75 475.531 2645.67 480.744 2653.65 485.888C2661.99 491.269 2670.23 496.787 2678.46 502.332C2679.53 503.047 2680.59 503.763 2681.69 504.5C2682.62 505.129 2683.55 505.758 2684.51 506.406C2686.63 507.764 2688.72 508.933 2691 510C2691 510.66 2691 511.32 2691 512C2691.57 512.102 2692.13 512.204 2692.72 512.309C2695.44 513.133 2697.21 514.384 2699.5 516.062C2707.04 521.48 2714.77 526.609 2722.62 531.562C2726.05 533.726 2729.39 535.958 2732.69 538.312C2737.02 541.388 2741.48 544.207 2746 547C2751.26 550.253 2756.39 553.598 2761.43 557.188C2771.91 564.581 2782.77 571.466 2793.52 578.464C2800.75 583.174 2807.94 587.932 2815.11 592.736C2818.74 595.163 2822.37 597.581 2826 600C2827.53 601.018 2829.05 602.036 2830.58 603.055C2831.32 603.549 2832.07 604.044 2832.83 604.554C2838.95 608.633 2838.95 608.633 2840.84 609.892C2842.06 610.708 2843.29 611.523 2844.51 612.338C2847.68 614.453 2850.85 616.574 2854.02 618.703C2855.02 619.374 2855.02 619.374 2856.04 620.058C2857.3 620.904 2858.56 621.752 2859.82 622.602C2863.78 625.261 2867.83 627.671 2872 630C2872 630.66 2872 631.32 2872 632C2872.7 632.268 2873.4 632.536 2874.12 632.812C2877.16 634.068 2880.07 635.502 2883 637C2883 637.66 2883 638.32 2883 639C2883.71 639.254 2884.42 639.508 2885.14 639.77C2888.27 641.118 2890.87 642.773 2893.69 644.688C2894.73 645.396 2895.78 646.105 2896.86 646.836C2900.51 649.35 2904.14 651.887 2907.75 654.457C2911.35 656.927 2915.06 659.103 2919 661C2919 661.66 2919 662.32 2919 663C2919.72 663.263 2920.44 663.527 2921.18 663.798C2924.08 665.035 2926.53 666.499 2929.17 668.23C2930.14 668.869 2931.12 669.508 2932.13 670.166C2933.14 670.833 2934.15 671.5 2935.19 672.188C2936.18 672.835 2937.17 673.483 2938.19 674.15C2942.86 677.216 2947.49 680.324 2952.05 683.551C2956.32 686.562 2960.69 689.384 2965.11 692.169C2970.36 695.493 2975.55 698.909 2980.75 702.312C2981.6 702.871 2981.6 702.871 2982.47 703.44C2990.77 708.871 2999.05 714.331 3007.29 719.854C3010.42 721.95 3013.55 724.037 3016.69 726.125C3017.93 726.953 3019.17 727.781 3020.41 728.609C3021.01 729.008 3021.61 729.407 3022.23 729.818C3036 739 3036 739 3038.98 740.996C3041.89 742.924 3044.81 744.815 3047.75 746.688C3048.69 747.289 3049.64 747.891 3050.61 748.512C3052.9 749.987 3052.9 749.987 3055 751C3055 751.66 3055 752.32 3055 753C3055.99 753 3056.98 753 3058 753C3058 753.66 3058 754.32 3058 755C3058.72 755.268 3059.45 755.536 3060.2 755.812C3062.98 756.993 3065.34 758.355 3067.88 760C3068.84 760.623 3069.8 761.245 3070.79 761.887C3078.24 766.789 3085.65 771.745 3093.05 776.723C3093.71 777.167 3094.37 777.611 3095.05 778.069C3096.31 778.911 3097.56 779.755 3098.81 780.601C3102.78 783.26 3106.83 785.671 3111 788C3111 788.66 3111 789.32 3111 790C3112.06 790.382 3112.06 790.382 3113.14 790.771C3116.29 792.124 3118.96 793.783 3121.82 795.668C3122.37 796.026 3122.92 796.384 3123.48 796.753C3124.63 797.509 3125.79 798.268 3126.94 799.03C3128.66 800.171 3130.39 801.306 3132.12 802.439C3138.03 806.315 3143.86 810.278 3149.63 814.349C3153.64 817.143 3157.76 819.787 3161.88 822.438C3163.64 823.582 3165.41 824.726 3167.18 825.871C3168.01 826.414 3168.85 826.956 3169.71 827.515C3176.1 831.665 3182.43 835.913 3188.7 840.234C3189.54 840.813 3190.39 841.392 3191.25 841.988C3192.92 843.134 3194.58 844.282 3196.24 845.434C3200.73 848.523 3205.24 851.362 3210 854C3211.49 854.863 3212.97 855.736 3214.44 856.625C3215.12 857.03 3215.8 857.435 3216.5 857.852C3216.99 858.231 3217.49 858.61 3218 859C3218 859.66 3218 860.32 3218 861C3218.88 861.254 3219.77 861.508 3220.68 861.77C3224.07 863.027 3226.33 864.487 3229.19 866.688C3233.74 870.103 3238.39 873.216 3243.21 876.238C3248.21 879.393 3253.09 882.71 3258 886C3260.77 887.856 3263.54 889.71 3266.31 891.562C3267.06 892.062 3267.81 892.561 3268.58 893.076C3272.99 896.021 3277.43 898.935 3281.88 901.824C3283.39 902.802 3283.39 902.802 3284.93 903.801C3286.87 905.061 3288.82 906.318 3290.77 907.573C3293.53 909.36 3296.26 911.177 3299 913C3300.02 913.655 3301.05 914.311 3302.1 914.986C3303.6 915.991 3303.6 915.991 3305.13 917.016C3306.04 917.611 3306.95 918.207 3307.89 918.821C3312.33 923.4 3311.11 930.811 3311.03 936.855C3310.98 944.654 3311.05 952.442 3311.22 960.238C3311.24 961.291 3311.26 962.344 3311.29 963.429C3311.33 965.605 3311.38 967.781 3311.43 969.958C3311.76 985.369 3312.08 1000.77 3312 1016.19C3311.96 1023.91 3311.99 1031.63 3312.22 1039.35C3312.24 1040.09 3312.26 1040.84 3312.29 1041.61C3312.33 1043.18 3312.38 1044.75 3312.43 1046.32C3313.08 1068.23 3313.08 1090.14 3313.06 1112.06C3313.06 1112.93 3313.06 1113.79 3313.06 1114.68C3313.05 1125.45 3313.03 1136.23 3313 1147C3313.62 1147.31 3314.24 1147.61 3314.88 1147.93C3317.01 1149 3319 1150.19 3321.02 1151.47C3321.79 1151.95 3322.55 1152.44 3323.35 1152.93C3324.16 1153.45 3324.97 1153.97 3325.81 1154.5C3327.08 1155.3 3327.08 1155.3 3328.37 1156.12C3334.25 1159.85 3340.07 1163.67 3345.85 1167.55C3349.47 1169.99 3353.12 1172.36 3356.81 1174.69C3361.16 1177.42 3365.35 1180.32 3369.52 1183.32C3371.99 1185 3374.55 1186.46 3377.16 1187.93C3380.28 1189.75 3383.26 1191.78 3386.25 1193.81C3392.44 1197.97 3398.69 1202.03 3405 1206C3417.15 1213.68 3429.25 1221.46 3441.19 1229.47C3442.01 1230.02 3442.83 1230.57 3443.67 1231.14C3445.24 1232.19 3446.79 1233.25 3448.35 1234.31C3449.05 1234.78 3449.75 1235.25 3450.47 1235.73C3451.08 1236.15 3451.69 1236.56 3452.32 1236.99C3454.14 1238.17 3454.14 1238.17 3457 1239C3457 1239.66 3457 1240.32 3457 1241C3458.02 1241.35 3458.02 1241.35 3459.06 1241.71C3462.66 1243.29 3465.78 1245.4 3469 1247.62C3480.19 1255.32 3480.19 1255.32 3492 1262C3492 1262.66 3492 1263.32 3492 1264C3492.87 1264.25 3493.75 1264.51 3494.64 1264.77C3498.11 1266.04 3500.67 1267.59 3503.69 1269.69C3507.59 1272.36 3511.5 1274.98 3515.5 1277.5C3519.24 1279.87 3522.95 1282.28 3526.62 1284.75C3531.49 1288.01 3536.39 1291.2 3541.31 1294.38C3547.36 1298.27 3553.36 1302.22 3559.33 1306.23C3564.8 1309.88 3570.32 1313.46 3575.86 1317.02C3580.1 1319.76 3584.31 1322.54 3588.5 1325.38C3593.2 1328.53 3597.99 1331.37 3603 1334C3603 1334.66 3603 1335.32 3603 1336C3604.02 1336.36 3604.02 1336.36 3605.05 1336.73C3608.65 1338.28 3611.89 1340.28 3615.19 1342.38C3616.23 1343.03 3616.23 1343.03 3617.29 1343.7C3623.39 1347.57 3629.41 1351.57 3635.41 1355.6C3640.04 1358.7 3644.68 1361.75 3649.38 1364.75C3658.06 1370.3 3666.67 1375.94 3675 1382C3671.58 1385.85 3667.53 1388.61 3663 1391C3662.34 1391 3661.68 1391 3661 1391C3661 1391.66 3661 1392.32 3661 1393C3660.47 1393.29 3659.93 1393.58 3659.39 1393.88C3653.45 1397.13 3647.68 1400.6 3641.94 1404.19C3641.03 1404.75 3640.12 1405.32 3639.18 1405.9C3637.33 1407.05 3635.48 1408.21 3633.63 1409.36C3631.22 1410.86 3628.81 1412.36 3626.39 1413.86C3618.44 1418.79 3618.44 1418.79 3610.62 1423.94C3605.55 1427.37 3600.29 1430.51 3595.06 1433.7C3582.66 1441.24 3570.4 1449.01 3558.16 1456.81C3551.91 1460.79 3545.64 1464.74 3539.35 1468.66C3532.81 1472.74 3526.31 1476.86 3519.85 1481.04C3512.53 1485.78 3505.13 1490.38 3497.68 1494.91C3493.04 1497.74 3488.44 1500.61 3483.88 1503.56C3477.03 1508 3470.12 1512.34 3463.19 1516.64C3461.65 1517.6 3460.11 1518.56 3458.57 1519.51C3456.09 1521.06 3453.61 1522.59 3451.12 1524.12C3450.35 1524.61 3449.57 1525.1 3448.76 1525.6C3447.68 1526.26 3447.68 1526.26 3446.57 1526.95C3445.93 1527.34 3445.29 1527.74 3444.63 1528.15C3443 1529 3443 1529 3441 1529C3441 1529.66 3441 1530.32 3441 1531C3440.1 1531.46 3440.1 1531.46 3439.19 1531.93C3432.54 1535.43 3426.27 1539.34 3419.99 1543.46C3413.15 1547.94 3406.2 1552.24 3399.22 1556.5C3395.5 1558.78 3391.84 1561.06 3388.32 1563.63C3385.65 1565.58 3382.89 1567.25 3379.99 1568.86C3377.55 1570.26 3375.17 1571.74 3372.79 1573.23C3371.42 1574.09 3371.42 1574.09 3370.02 1574.97C3368.11 1576.17 3366.2 1577.37 3364.3 1578.57C3363.39 1579.14 3362.48 1579.71 3361.54 1580.3C3360.72 1580.82 3359.89 1581.34 3359.04 1581.87C3357 1583 3357 1583 3355 1583C3355 1583.66 3355 1584.32 3355 1585C3354.51 1585.26 3354.03 1585.51 3353.52 1585.78C3348.16 1588.67 3343.05 1591.87 3337.94 1595.2C3331.74 1599.22 3325.39 1603 3319.02 1606.75C3315.3 1608.95 3311.66 1611.18 3308.16 1613.71C3305.73 1615.47 3303.46 1616.94 3300.81 1618.31C3295.93 1620.95 3291.38 1624.02 3286.8 1627.13C3284.24 1628.84 3281.65 1630.44 3279 1632C3280.25 1635.65 3280.67 1636.78 3284 1639C3284 1639.66 3284 1640.32 3284 1641C3284.9 1641.4 3284.9 1641.4 3285.81 1641.81C3288.07 1643.04 3289.39 1644.01 3291 1646C3293.09 1658.05 3290.96 1671.97 3290.54 1684.17C3290.17 1695.44 3289.83 1706.7 3289.54 1717.97C3289.52 1718.69 3289.5 1719.41 3289.48 1720.16C3289.38 1723.9 3289.28 1727.65 3289.18 1731.39C3288.97 1739.57 3288.76 1747.75 3288.54 1755.93C3288.51 1757.19 3288.51 1757.19 3288.47 1758.46C3288.15 1770.55 3287.81 1782.64 3287.46 1794.72C3287.44 1795.47 3287.42 1796.22 3287.39 1797C3287.29 1800.73 3287.18 1804.47 3287.07 1808.2C3287.02 1809.68 3286.98 1811.15 3286.94 1812.62C3286.92 1813.36 3286.89 1814.09 3286.87 1814.84C3286.3 1834.57 3285.8 1854.29 3285.45 1874.02C3285.11 1892.39 3284.5 1910.75 3283.87 1929.11C3283.22 1947.69 3282.7 1966.27 3282.32 1984.87C3282.11 1995.12 3281.85 2005.37 3281.5 2015.62C3281.08 2027.73 3280.77 2039.83 3280.5 2051.94C3280.47 2053.3 3280.47 2053.3 3280.44 2054.69C3280.35 2058.37 3280.27 2062.05 3280.19 2065.73C3279.97 2075.51 3279.74 2085.29 3279.5 2095.06C3279.48 2095.89 3279.46 2096.73 3279.44 2097.58C3279.16 2109.03 3278.8 2120.47 3278.3 2131.91C3278.12 2136.26 3277.99 2140.59 3278.04 2144.95C3278 2150.64 3277.47 2156.32 3277 2162C3256.54 2162 3236.08 2162 3215 2162C3215.01 2169.13 3215.01 2169.13 3215.01 2176.4C3215.09 2259.54 3215.17 2342.68 3215.21 2425.82C3215.21 2427.12 3215.21 2428.42 3215.21 2429.76C3215.23 2457.33 3215.24 2484.91 3215.25 2512.49C3215.26 2526.34 3215.27 2540.19 3215.27 2554.04C3215.27 2556.13 3215.28 2558.22 3215.28 2560.31C3215.29 2592.49 3215.31 2624.67 3215.34 2656.86C3215.34 2657.55 3215.34 2658.24 3215.35 2658.96C3215.36 2670.12 3215.37 2681.28 3215.38 2692.44C3215.41 2724.58 3215.44 2756.71 3215.46 2788.85C3215.46 2789.51 3215.46 2790.17 3215.46 2790.85C3215.46 2804.7 3215.47 2818.55 3215.47 2832.4C3215.47 2838.89 3215.47 2845.37 3215.47 2851.86C3215.47 2853.77 3215.48 2853.77 3215.48 2855.72C3215.48 2876.31 3215.5 2896.89 3215.53 2917.47C3215.56 2938.14 3215.57 2958.81 3215.57 2979.48C3215.56 2991.78 3215.57 3004.07 3215.6 3016.36C3215.62 3024.56 3215.62 3032.76 3215.61 3040.97C3215.6 3045.65 3215.6 3050.33 3215.62 3055.01C3215.64 3059.26 3215.64 3063.51 3215.62 3067.76C3215.62 3069.3 3215.62 3070.83 3215.64 3072.36C3215.65 3074.44 3215.64 3076.51 3215.62 3078.58C3215.62 3079.74 3215.62 3080.89 3215.62 3082.07C3215 3085 3215 3085 3212.66 3087.33C3209.85 3089.1 3207.16 3090 3204 3091C3203.5 3091.99 3203.5 3091.99 3203 3093C3201.43 3094.01 3199.82 3094.96 3198.19 3095.88C3192.44 3099.16 3186.74 3102.53 3181.06 3105.94C3180.2 3106.45 3179.34 3106.97 3178.45 3107.5C3174.62 3109.81 3170.79 3112.12 3167 3114.48C3166.41 3114.85 3165.82 3115.21 3165.21 3115.59C3163.68 3116.55 3162.16 3117.51 3160.63 3118.48C3158.14 3119.92 3155.7 3121.01 3153 3122C3153 3122.66 3153 3123.32 3153 3124C3152.26 3124.35 3151.52 3124.7 3150.76 3125.07C3144.27 3128.23 3138.18 3131.66 3132.18 3135.68C3130 3137 3130 3137 3128 3137C3128 3137.66 3128 3138.32 3128 3139C3126.83 3139.57 3125.66 3140.13 3124.46 3140.71C3120.36 3142.76 3116.53 3145.09 3112.69 3147.56C3106.41 3151.54 3100.05 3155.38 3093.62 3159.12C3092.8 3159.61 3091.97 3160.1 3091.12 3160.6C3090.35 3161.04 3089.58 3161.49 3088.79 3161.95C3088.11 3162.34 3087.42 3162.74 3086.72 3163.15C3085 3164 3085 3164 3083 3164C3083 3164.66 3083 3165.32 3083 3166C3082.36 3166.34 3081.71 3166.68 3081.05 3167.03C3074.59 3170.5 3068.33 3174.2 3062.1 3178.07C3058.74 3180.16 3055.35 3182.19 3051.95 3184.21C3049.45 3185.73 3046.97 3187.27 3044.48 3188.82C3043.68 3189.32 3042.87 3189.82 3042.03 3190.34C3040.4 3191.35 3038.78 3192.37 3037.16 3193.39C3036.4 3193.86 3035.65 3194.32 3034.88 3194.8C3033.87 3195.44 3033.87 3195.44 3032.83 3196.09C3031 3197 3031 3197 3028 3197C3028 3197.66 3028 3198.32 3028 3199C3027.46 3199.29 3026.93 3199.59 3026.37 3199.89C3020.59 3203.08 3014.9 3206.4 3009.25 3209.81C3008.37 3210.34 3007.5 3210.87 3006.59 3211.41C2997.82 3216.67 2997.82 3216.67 2989.18 3222.16C2986.64 3223.63 2984.65 3224.5 2981.91 3225.4C2977.33 3227.11 2973.57 3228.65 2971 3233C2968.79 3243.1 2969.45 3253.75 2970 3264C2961.02 3268.9 2952 3273.52 2942.7 3277.77C2938.24 3279.83 2934.11 3282.12 2929.97 3284.78C2926.72 3286.79 2923.31 3288.45 2919.88 3290.12C2918.86 3290.63 2918.86 3290.63 2917.82 3291.14C2916.5 3291.79 2915.17 3292.45 2913.84 3293.1C2911.22 3294.38 2908.61 3295.69 2906 3297C2904.2 3297.9 2902.4 3298.8 2900.6 3299.7C2899.24 3300.38 2897.88 3301.06 2896.53 3301.74C2892.96 3303.52 2889.4 3305.3 2885.82 3307.05C2884.46 3307.72 2883.11 3308.39 2881.75 3309.06C2881.09 3309.39 2880.43 3309.71 2879.75 3310.05C2874.47 3312.68 2869.5 3315.65 2864.55 3318.85C2862 3320 2862 3320 2859.44 3320.06C2855.89 3318.51 2854.71 3316.19 2852.69 3312.94C2851.99 3311.83 2851.29 3310.73 2850.57 3309.59C2850.05 3308.74 2849.54 3307.88 2849 3307C2845.83 3307.65 2843.41 3308.76 2840.61 3310.37C2839.34 3311.1 2839.34 3311.1 2838.05 3311.85C2837.14 3312.37 2836.24 3312.9 2835.31 3313.44C2834.38 3313.98 2833.44 3314.52 2832.48 3315.07C2825.95 3318.84 2819.45 3322.66 2812.96 3326.49C2805.53 3330.88 2798.03 3335.15 2790.53 3339.4C2776.78 3347.18 2776.78 3347.18 2763.36 3355.51C2760.12 3357.55 2756.77 3359.34 2753.4 3361.14C2746.03 3365.16 2738.78 3369.39 2731.5 3373.57C2729.31 3374.82 2727.12 3376.07 2724.92 3377.31C2718.61 3380.87 2712.44 3384.59 2706.36 3388.52C2703.64 3390.23 2700.91 3391.66 2698 3393C2699.03 3396.54 2700.27 3399.56 2702.19 3402.69C2702.79 3403.78 2703.38 3404.87 2704 3406C2702.81 3409.57 2702.07 3409.84 2698.91 3411.67C2698.06 3412.17 2697.22 3412.67 2696.34 3413.19C2695.44 3413.7 2694.55 3414.22 2693.62 3414.75C2691.89 3415.76 2690.15 3416.78 2688.41 3417.8C2687.52 3418.32 2686.63 3418.84 2685.72 3419.38C2682.05 3421.57 2678.46 3423.88 2674.86 3426.19C2669.78 3429.41 2664.6 3432.48 2659.44 3435.56C2658.38 3436.2 2657.32 3436.83 2656.23 3437.48C2654.14 3438.73 2652.05 3439.98 2649.97 3441.23C2643.52 3445.08 2637.08 3448.93 2630.69 3452.88C2629.58 3453.56 2628.47 3454.24 2627.33 3454.95C2625.21 3456.25 2623.1 3457.56 2620.98 3458.87C2613.45 3463.53 2605.85 3468.09 2598.25 3472.63C2592.96 3475.8 2587.73 3479.02 2582.58 3482.4C2580.34 3483.79 2578.08 3485.07 2575.76 3486.34C2571.05 3488.93 2566.53 3491.78 2562 3494.69C2555.94 3498.55 2549.84 3502.33 2543.62 3505.94C2532.03 3512.68 2520.67 3519.8 2509.32 3526.95C2508.6 3527.4 2507.88 3527.85 2507.13 3528.32C2505.8 3529.16 2504.47 3530 2503.15 3530.84C2495.65 3535.57 2495.65 3535.57 2492 3537C2485.77 3535.22 2479.54 3528.17 2476 3523C2476 3522.34 2476 3521.68 2476 3521C2475.34 3521 2474.68 3521 2474 3521C2473.5 3521.99 2473.5 3521.99 2473 3523C2471.52 3523.95 2470.01 3524.84 2468.47 3525.69C2467.52 3526.22 2466.57 3526.75 2465.6 3527.29C2464.57 3527.85 2463.55 3528.42 2462.5 3529C2460.39 3530.18 2458.28 3531.36 2456.18 3532.54C2455.13 3533.12 2454.08 3533.71 2453 3534.31C2448.87 3536.64 2444.77 3539.02 2440.69 3541.44C2440 3541.84 2439.32 3542.24 2438.61 3542.66C2434 3545.39 2429.42 3548.18 2424.88 3551.04C2423 3552 2423 3552 2420 3552C2420 3552.66 2420 3553.32 2420 3554C2418.85 3554.63 2418.85 3554.63 2417.68 3555.28C2414.79 3556.88 2411.9 3558.48 2409.01 3560.08C2407.77 3560.77 2406.53 3561.45 2405.29 3562.14C2398.53 3565.88 2391.81 3569.67 2385.2 3573.68C2381.99 3575.61 2378.72 3577.43 2375.44 3579.25C2368.98 3582.85 2362.6 3586.56 2356.24 3590.33C2350.54 3593.7 2344.8 3596.98 2339.04 3600.24C2336.41 3601.76 2333.86 3603.35 2331.31 3605C2328 3607 2328 3607 2325 3607C2325 3607.66 2325 3608.32 2325 3609C2324.01 3609 2323.02 3609 2322 3609C2322 3609.66 2322 3610.32 2322 3611C2321.44 3611.27 2320.88 3611.54 2320.3 3611.81C2309.59 3617.05 2299.37 3623.14 2289.17 3629.29C2283.47 3632.73 2277.74 3636.12 2272 3639.5C2263.31 3644.63 2254.64 3649.79 2246 3655C2231.45 3663.77 2216.82 3672.41 2202.17 3681.01C2196.18 3684.53 2190.2 3688.06 2184.25 3691.62C2183.34 3692.17 2183.34 3692.17 2182.4 3692.73C2179.36 3694.55 2176.34 3696.41 2173.35 3698.3C2172.77 3698.67 2172.18 3699.04 2171.58 3699.42C2169.98 3700.43 2168.39 3701.45 2166.8 3702.47C2164.12 3703.94 2162.02 3704.6 2159 3705C2159 3705.66 2159 3706.32 2159 3707C2158.46 3707.2 2157.93 3707.39 2157.38 3707.59C2146.39 3711.79 2136.02 3717.35 2125.69 3722.94C2119.27 3726.41 2112.73 3729.55 2106.12 3732.64C2099 3735.98 2091.97 3739.47 2084.95 3743.02C2081.64 3744.69 2078.32 3746.34 2075 3748C2073.67 3748.67 2072.33 3749.33 2071 3750C2047.14 3761.93 2047.14 3761.93 2045.2 3762.9C2043.89 3763.55 2042.58 3764.21 2041.27 3764.86C2037.59 3766.71 2033.9 3768.54 2030.21 3770.38C2021.87 3774.52 2013.59 3778.73 2005.38 3783.12C1998.63 3786.73 1991.79 3789.93 1984.77 3792.96C1976.7 3796.49 1969 3800.67 1961.23 3804.82C1957.3 3806.9 1953.35 3808.94 1949.33 3810.85C1945.27 3812.8 1941.42 3814.93 1937.56 3817.26C1923.6 3825.33 1923.6 3825.33 1917.44 3824.76C1912.26 3823.24 1907.86 3820.45 1903.38 3817.5C1899.33 3814.94 1895 3812.96 1890.69 3810.88C1889.01 3810.03 1887.33 3809.19 1885.65 3808.34C1880.57 3805.78 1875.48 3803.24 1870.39 3800.7C1868.05 3799.53 1865.72 3798.36 1863.39 3797.18C1855.5 3793.2 1847.55 3789.35 1839.56 3785.56C1831.95 3781.95 1824.43 3778.2 1817 3774.21C1810.39 3770.65 1803.69 3767.3 1796.96 3763.98C1795.03 3763.02 1793.1 3762.05 1791.18 3761.07C1783.69 3757.3 1776.15 3753.64 1768.56 3750.06C1762.16 3747.04 1755.85 3743.92 1749.62 3740.56C1742.02 3736.46 1734.25 3732.72 1726.44 3729.02C1713.65 3722.94 1701.05 3716.55 1688.53 3709.94C1684.27 3707.7 1679.99 3705.49 1675.68 3703.35C1672.38 3701.71 1669.19 3700.01 1666.06 3698.06C1660.81 3694.85 1655.43 3691.91 1650 3689C1650 3688.34 1650 3687.68 1650 3687C1649.43 3686.89 1648.86 3686.78 1648.28 3686.66C1645.71 3685.92 1643.83 3684.84 1641.56 3683.44C1640.69 3682.9 1639.81 3682.36 1638.91 3681.81C1636.89 3680.55 1634.86 3679.29 1632.84 3678.04C1627.93 3674.99 1623.04 3671.97 1617.94 3669.25C1606.62 3663.19 1595.72 3656.32 1584.81 3649.56C1579.95 3646.56 1575.02 3643.73 1570 3641C1566.12 3638.87 1562.41 3636.62 1558.75 3634.12C1554.57 3631.3 1550.24 3628.93 1545.8 3626.55C1543.06 3625.03 1540.44 3623.4 1537.81 3621.69C1531.41 3617.55 1524.77 3613.87 1518.1 3610.17C1515.31 3608.61 1512.52 3607.04 1509.73 3605.47C1502.85 3601.58 1495.95 3597.75 1489 3594C1489 3593.34 1489 3592.68 1489 3592C1488.14 3591.74 1487.28 3591.49 1486.39 3591.22C1482.89 3589.96 1479.99 3588.37 1476.81 3586.44C1472.57 3583.87 1472.57 3583.87 1468 3582C1468 3581.34 1468 3580.68 1468 3580C1467.46 3579.9 1466.91 3579.8 1466.35 3579.7C1463.38 3578.82 1461.04 3577.4 1458.38 3575.81C1457.31 3575.18 1456.25 3574.55 1455.15 3573.9C1453.23 3572.74 1451.3 3571.58 1449.38 3570.41C1444.23 3567.3 1439.02 3564.36 1433.72 3561.5C1431.11 3560.06 1428.55 3558.55 1426 3557C1422.65 3554.96 1419.27 3553.04 1415.81 3551.19C1410.54 3548.35 1405.41 3545.29 1400.3 3542.16C1397.58 3540.5 1394.88 3538.94 1392.02 3537.51C1387.72 3535.36 1383.67 3532.83 1379.57 3530.32C1375.79 3528.02 1371.99 3525.92 1368 3524C1368 3523.34 1368 3522.68 1368 3522C1362.77 3523.48 1359.83 3526.82 1356.19 3530.62C1355.59 3531.24 1354.99 3531.85 1354.38 3532.48C1352.91 3533.98 1351.45 3535.49 1350 3537C1346.81 3535.76 1343.74 3534.42 1340.69 3532.88C1339.99 3532.52 1339.29 3532.17 1338.57 3531.8C1338.05 3531.54 1337.54 3531.27 1337 3531C1337 3530.34 1337 3529.68 1337 3529C1336.15 3528.76 1335.3 3528.52 1334.42 3528.27C1330.68 3526.88 1327.59 3524.97 1324.31 3522.75C1319.15 3519.34 1313.92 3516.24 1308.45 3513.33C1305.56 3511.76 1302.79 3510.05 1300.02 3508.27C1297.75 3506.84 1295.44 3505.49 1293.12 3504.12C1289.59 3502.02 1286.22 3499.78 1282.88 3497.38C1279.44 3494.93 1276.08 3492.95 1272.27 3491.16C1268.62 3489.29 1265.18 3487.09 1261.71 3484.92C1258.98 3483.22 1256.26 3481.55 1253.44 3480C1250.27 3478.16 1247.28 3476.18 1244.25 3474.12C1239.5 3470.93 1234.68 3468.1 1229.63 3465.41C1222.07 3461.35 1214.85 3456.66 1207.59 3452.09C1202.1 3448.66 1196.56 3445.32 1191 3442C1184.44 3438.08 1177.92 3434.1 1171.46 3430.02C1163.86 3425.24 1156.14 3420.67 1148.43 3416.09C1147.39 3415.47 1146.36 3414.86 1145.3 3414.22C1144.37 3413.67 1143.45 3413.12 1142.5 3412.56C1140.23 3411.14 1138.11 3409.64 1136 3408C1137.03 3404.48 1138.27 3401.4 1140.12 3398.25C1142.17 3395.34 1142.17 3395.34 1142 3393C1141.2 3392.55 1140.4 3392.1 1139.57 3391.64C1132.58 3387.68 1125.7 3383.6 1118.88 3379.38C1114 3376.36 1109.17 3373.48 1104 3371C1098.04 3368.14 1092.52 3364.71 1086.91 3361.24C1082.06 3358.24 1077.17 3355.34 1072.19 3352.56C1071.54 3352.2 1070.89 3351.84 1070.22 3351.47C1068.86 3350.71 1067.51 3349.96 1066.15 3349.2C1062.19 3346.99 1058.25 3344.75 1054.31 3342.5C1053.46 3342.01 1052.6 3341.52 1051.72 3341.02C1046.29 3337.91 1040.88 3334.77 1035.49 3331.59C1034.85 3331.21 1034.2 3330.83 1033.54 3330.44C1030.34 3328.56 1027.14 3326.68 1023.95 3324.79C1018.06 3321.31 1012.18 3317.95 1006 3315C1006 3314.34 1006 3313.68 1006 3313C1005.15 3312.75 1004.31 3312.5 1003.44 3312.25C1000.75 3311.27 998.674 3310.31 996.25 3308.88C993.337 3306.83 993.337 3306.83 991 3307C989.763 3308.74 988.609 3310.55 987.5 3312.38C984.179 3317.82 984.179 3317.82 982 3320C977.434 3319.68 973.568 3317.49 969.562 3315.44C968.863 3315.08 968.164 3314.73 967.443 3314.37C961.634 3311.4 955.987 3308.19 950.379 3304.86C947.09 3303.05 943.774 3301.55 940.336 3300.05C936.443 3298.3 932.7 3296.27 928.938 3294.25C922.912 3291.05 916.867 3287.9 910.75 3284.88C904.997 3282.03 899.322 3279.06 893.672 3276.01C886.529 3272.18 879.266 3268.59 872 3265C871.01 3264.5 871.01 3264.5 870 3264C870.033 3263.1 870.065 3262.2 870.099 3261.27C870.191 3257.89 870.23 3254.52 870.232 3251.14C870.244 3249.68 870.277 3248.23 870.333 3246.77C870.508 3241.93 870.419 3237.66 869 3233C865.431 3229.58 861.518 3227.89 857 3226C855.672 3225.21 854.36 3224.39 853.082 3223.52C847.635 3219.94 842.195 3216.46 836.457 3213.36C825.455 3207.26 814.822 3200.44 804.119 3193.84C791.913 3186.32 779.594 3178.99 767.25 3171.7C762.532 3168.91 757.827 3166.1 753.133 3163.27C750.114 3161.47 747.062 3159.73 744 3158C744 3157.34 744 3156.68 744 3156C743.126 3155.81 743.126 3155.81 742.234 3155.62C730.615 3152.39 719.139 3142.66 709.062 3136.19C705.257 3133.76 701.392 3131.52 697.426 3129.37C694.503 3127.72 691.662 3125.96 688.812 3124.19C684.32 3121.4 679.794 3118.72 675.188 3116.12C669.612 3112.98 664.178 3109.64 658.766 3106.22C652.109 3102.03 645.371 3097.98 638.625 3093.94C637.512 3093.27 636.399 3092.6 635.253 3091.91C630.199 3088.83 630.199 3088.83 625 3086C625 2781.08 625 2476.16 625 2162C604.54 2162 584.08 2162 563 2162C561.875 2150.75 561.875 2150.75 561.811 2146.72C561.794 2145.81 561.777 2144.9 561.76 2143.96C561.739 2142.53 561.739 2142.53 561.719 2141.07C561.701 2140.05 561.683 2139.03 561.664 2137.98C561.626 2135.81 561.589 2133.65 561.554 2131.48C561.462 2125.81 561.357 2120.14 561.25 2114.48C561.229 2113.37 561.209 2112.26 561.187 2111.13C561.036 2103.25 560.814 2095.37 560.5 2087.5C560.093 2077.11 559.801 2066.71 559.562 2056.31C559.523 2054.62 559.484 2052.93 559.445 2051.24C559.379 2048.37 559.313 2045.51 559.247 2042.64C558.908 2027.95 558.556 2013.26 558.199 1998.57C558.089 1994.06 557.98 1989.54 557.873 1985.03C557.361 1962.19 557.361 1962.19 556.5 1939.35C555.993 1928.38 555.759 1917.4 555.527 1906.42C555.169 1889.42 554.768 1872.42 554.316 1855.43C554.286 1854.29 554.256 1853.16 554.225 1851.99C554.038 1844.97 553.85 1837.95 553.66 1830.93C553.561 1827.25 553.462 1823.57 553.364 1819.9C552.549 1789.54 551.698 1759.18 550.753 1728.82C550.234 1712.13 549.757 1695.44 549.375 1678.75C549.354 1677.86 549.334 1676.98 549.312 1676.07C549.205 1671.4 549.115 1666.74 549.043 1662.08C549 1660.02 548.927 1657.96 548.848 1655.9C548.814 1654.65 548.781 1653.4 548.746 1652.11C548.707 1651.04 548.667 1649.96 548.627 1648.85C549.203 1644.45 551.568 1642.36 554.887 1639.62C555.584 1639.09 556.281 1638.55 557 1638C558.017 1637.02 559.02 1636.02 560 1635C560.66 1634.34 561.32 1633.68 562 1633C551.69 1625.96 541.021 1619.46 530.375 1612.94C525.35 1609.85 520.381 1606.69 515.43 1603.49C510.42 1600.26 505.37 1597.09 500.309 1593.94C495.065 1590.67 489.843 1587.37 484.625 1584.06C477.635 1579.63 470.59 1575.3 463.511 1571.02C457.935 1567.62 452.487 1564.06 447.12 1560.35C442.917 1557.47 438.591 1555.21 434 1553C434 1552.34 434 1551.68 434 1551C433.305 1550.74 432.61 1550.48 431.895 1550.22C428.67 1548.86 425.718 1547.25 422.688 1545.5C421.085 1544.59 421.085 1544.59 419.449 1543.66C418.641 1543.11 417.833 1542.56 417 1542C417 1541.34 417 1540.68 417 1540C416.435 1539.89 415.87 1539.78 415.287 1539.67C412.658 1538.9 410.722 1537.76 408.402 1536.3C407.524 1535.76 406.646 1535.21 405.74 1534.65C404.353 1533.77 404.353 1533.77 402.938 1532.88C401.987 1532.28 401.037 1531.69 400.058 1531.07C397.369 1529.39 394.683 1527.7 392 1526C390.899 1525.31 389.798 1524.61 388.664 1523.9C384.922 1521.53 381.199 1519.13 377.48 1516.72C376.862 1516.32 376.244 1515.92 375.607 1515.51C374.414 1514.74 373.222 1513.97 372.031 1513.19C368.748 1511.07 365.409 1509.1 362.005 1507.17C358.595 1505.18 355.285 1503.02 351.958 1500.89C346.973 1497.7 341.954 1494.57 336.938 1491.44C335.421 1490.49 335.421 1490.49 333.873 1489.52C328.293 1486.03 322.688 1482.59 317.018 1479.25C315 1478 315 1478 312.438 1475.94C310.327 1474.26 308.421 1473.08 306.062 1471.81C302.11 1469.67 298.327 1467.33 294.562 1464.88C289.011 1461.27 283.404 1457.76 277.75 1454.31C276.978 1453.84 276.206 1453.37 275.41 1452.89C271.456 1450.48 267.487 1448.1 263.5 1445.75C260.2 1443.79 257.065 1441.67 253.938 1439.44C250.143 1436.73 246.285 1434.43 242.188 1432.23C239.241 1430.57 236.488 1428.69 233.695 1426.79C230.276 1424.52 226.798 1422.35 223.312 1420.19C218.08 1416.93 212.867 1413.65 207.688 1410.31C207.118 1409.95 206.549 1409.58 205.963 1409.2C203.236 1407.44 200.511 1405.68 197.789 1403.92C196.807 1403.29 195.825 1402.65 194.812 1402C193.523 1401.16 193.523 1401.16 192.207 1400.31C189.953 1398.87 189.953 1398.87 187 1398C187 1397.34 187 1396.68 187 1396C186.334 1395.76 185.667 1395.53 184.98 1395.29C181.205 1393.66 177.811 1391.59 174.312 1389.44C169.73 1386.59 169.73 1386.59 165 1384C166.448 1380.4 168.21 1378.85 171.438 1376.75C172.22 1376.23 173.002 1375.71 173.809 1375.17C176 1374 176 1374 179 1374C179 1373.34 179 1372.68 179 1372C180.844 1370.62 180.844 1370.62 183.5 1369C184.505 1368.38 185.511 1367.75 186.547 1367.11C187.102 1366.77 187.657 1366.43 188.229 1366.08C191.413 1364.14 194.582 1362.16 197.75 1360.19C198.436 1359.76 199.121 1359.33 199.828 1358.89C204.899 1355.72 209.889 1352.44 214.854 1349.11C220.786 1345.13 226.765 1341.22 232.75 1337.31C233.696 1336.69 234.643 1336.08 235.617 1335.44C241.222 1331.79 246.851 1328.18 252.507 1324.6C255.732 1322.53 258.885 1320.36 262.027 1318.16C264.029 1316.98 265.729 1316.44 268 1316C268 1315.34 268 1314.68 268 1314C269.573 1312.79 269.573 1312.79 271.762 1311.47C272.551 1310.99 273.341 1310.51 274.154 1310.01C274.99 1309.51 275.826 1309.01 276.688 1308.5C277.504 1308 278.321 1307.5 279.162 1306.99C283.039 1304.65 286.753 1302.61 291 1301C291 1300.34 291 1299.68 291 1299C292.427 1298.21 292.427 1298.21 293.883 1297.4C298.669 1294.66 303.264 1291.64 307.875 1288.62C309.145 1287.8 309.145 1287.8 310.441 1286.95C314.511 1284.3 318.569 1281.63 322.609 1278.93C326.84 1276.1 331.101 1273.32 335.375 1270.56C336.489 1269.84 336.489 1269.84 337.625 1269.11C341.55 1266.57 345.485 1264.05 349.438 1261.56C354.243 1258.52 358.964 1255.36 363.688 1252.19C370.249 1247.79 376.88 1243.53 383.595 1239.37C387.606 1236.88 391.561 1234.33 395.473 1231.69C399.084 1229.28 402.729 1226.92 406.375 1224.56C407.121 1224.08 407.867 1223.6 408.636 1223.1C412.62 1220.53 416.615 1217.97 420.625 1215.44C430.134 1209.4 439.52 1203.16 448.656 1196.57C451.039 1194.97 453.499 1193.58 455.997 1192.17C459.985 1189.84 463.825 1187.28 467.688 1184.75C468.576 1184.17 469.464 1183.59 470.38 1182.99C475.023 1179.96 479.649 1176.91 484.25 1173.81C489.303 1170.42 494.454 1167.21 499.626 1164.01C505.922 1160.09 512.087 1155.99 518.237 1151.85C518.96 1151.36 519.684 1150.87 520.43 1150.37C521.392 1149.72 521.392 1149.72 522.375 1149.06C524 1148 524 1148 526 1147C526.133 1139.43 526.263 1131.85 526.391 1124.28C526.451 1120.76 526.511 1117.24 526.573 1113.72C526.817 1099.82 527.037 1085.92 526.991 1072.01C526.967 1059.59 527.3 1047.17 527.573 1034.74C527.837 1022.53 528.033 1010.34 528 998.125C527.977 985.641 528.14 973.16 528.317 960.678C528.357 957.821 528.392 954.963 528.422 952.106C528.459 948.591 528.505 945.076 528.558 941.561C528.585 939.606 528.603 937.651 528.621 935.695C528.641 934.509 528.661 933.322 528.681 932.099C528.694 931.063 528.708 930.026 528.722 928.958C529.088 925.067 529.701 921.308 532.525 918.464C533.111 918.102 533.697 917.74 534.301 917.367C535.272 916.747 535.272 916.747 536.264 916.113C536.94 915.705 537.616 915.296 538.312 914.875C539.643 914.041 540.973 913.205 542.301 912.367C542.938 911.969 543.575 911.571 544.231 911.161C546.615 909.597 548.779 907.785 551 906C553.27 904.669 555.58 903.461 557.914 902.246C559.971 901.017 561.339 899.706 563 898C564.664 897.021 566.331 896.046 568.023 895.117C570.859 893.514 573.573 891.732 576.301 889.953C578 889 578 889 580 889C580 888.34 580 887.68 580 887C581.845 885.615 581.845 885.615 584.426 884.023C585.362 883.439 586.298 882.855 587.263 882.253C588.269 881.633 589.276 881.013 590.312 880.375C599.263 874.812 599.263 874.812 607.875 868.75C612.677 865.145 617.703 862.004 622.809 858.855C629.402 854.78 635.843 850.494 642.27 846.164C644.903 844.392 647.546 842.634 650.188 840.875C651.15 840.233 652.113 839.591 653.105 838.93C662 833 662 833 665.008 830.996C666.983 829.678 668.957 828.358 670.93 827.035C676.253 823.47 681.604 819.955 687 816.5C695.879 810.808 704.646 805.002 713.188 798.812C717.507 795.689 721.835 792.871 726.551 790.387C731.892 787.363 736.916 783.786 741.998 780.348C743.998 779.001 746.007 777.668 748.02 776.34C755.832 771.205 755.832 771.205 763.375 765.688C766.627 763.178 770.047 761.275 773.66 759.336C777.058 757.396 780.192 755.13 783.375 752.859C787.543 749.907 791.811 747.105 796.068 744.283C799.189 742.21 802.306 740.131 805.423 738.052C807.227 736.849 809.03 735.647 810.834 734.447C815.328 731.455 819.814 728.454 824.285 725.43C825.112 724.872 825.939 724.315 826.791 723.741C828.36 722.683 829.927 721.621 831.491 720.556C832.189 720.086 832.886 719.617 833.605 719.133C834.215 718.719 834.825 718.306 835.454 717.879C837 717 837 717 839 717C839 716.34 839 715.68 839 715C841.905 712.958 843.401 712 847 712C847 711.34 847 710.68 847 710C848.011 709.435 849.021 708.871 850.062 708.289C853.821 706.14 857.415 703.798 861 701.375C862.329 700.483 863.659 699.591 864.988 698.699C865.993 698.023 865.993 698.023 867.018 697.333C872.665 693.534 878.325 689.757 884 686C885.275 685.156 885.275 685.156 886.575 684.294C889.317 682.482 892.064 680.678 894.812 678.875C896.131 678.003 896.131 678.003 897.475 677.114C898.294 676.579 899.113 676.044 899.957 675.492C900.689 675.011 901.421 674.53 902.175 674.035C904 673 904 673 906 673C906 672.34 906 671.68 906 671C907.516 670.165 907.516 670.165 909.062 669.312C912.902 667.119 916.443 664.62 920 662C923.466 659.447 926.904 656.996 930.66 654.883C933.407 653.334 935.897 651.73 938.438 649.875C942.831 646.747 947.347 643.888 951.938 641.062C956.589 638.194 961.117 635.272 965.5 632C970.437 628.319 975.578 625.082 980.814 621.852C987.357 617.807 993.749 613.555 1000.13 609.259C1003.31 607.121 1006.5 604.999 1009.69 602.875C1010.94 602.039 1012.2 601.203 1013.45 600.367C1023 594 1023 594 1025.94 592.043C1028.08 590.61 1030.23 589.176 1032.38 587.738C1040.4 582.367 1048.47 577.084 1056.57 571.833C1061.8 568.441 1067.01 565.023 1072.19 561.562C1072.79 561.159 1073.4 560.755 1074.02 560.338C1076.64 558.588 1079.25 556.828 1081.85 555.051C1082.66 554.498 1083.48 553.945 1084.31 553.375C1084.99 552.908 1085.67 552.442 1086.36 551.961C1088 551 1088 551 1090 551C1090 550.34 1090 549.68 1090 549C1091.01 548.436 1092.01 547.871 1093.05 547.29C1096.85 545.119 1100.51 542.777 1104.16 540.367C1105.15 539.712 1105.15 539.712 1106.17 539.044C1108.28 537.656 1110.39 536.266 1112.5 534.875C1113.88 533.966 1115.27 533.057 1116.65 532.148C1125.19 526.53 1133.71 520.873 1142.21 515.193C1145.09 513.273 1147.97 511.355 1150.84 509.437C1152.48 508.345 1152.48 508.345 1154.16 507.23C1156.46 505.693 1158.77 504.156 1161.07 502.62C1168.17 497.888 1168.17 497.888 1175.27 493.145C1183.64 487.536 1192.08 482.019 1200.53 476.527C1207.39 472.068 1214.2 467.547 1221 463C1255.06 440.234 1255.06 440.234 1265.54 433.521C1268.81 431.427 1272.05 429.301 1275.27 427.129C1275.97 426.657 1276.67 426.185 1277.39 425.698C1278.72 424.801 1280.04 423.899 1281.36 422.993C1285.78 420 1285.78 420 1288 420C1288 419.34 1288 418.68 1288 418C1294.75 414 1294.75 414 1297 414C1297 413.34 1297 412.68 1297 412C1299.16 410.579 1299.16 410.579 1302.18 408.918C1308.45 405.362 1314.44 401.492 1320.42 397.462C1322.17 396.284 1323.92 395.112 1325.67 393.94C1331.01 390.359 1336.35 386.763 1341.68 383.16C1342.52 382.598 1343.35 382.037 1344.21 381.458C1345.74 380.427 1347.27 379.392 1348.8 378.353C1353.78 375 1353.78 375 1356 375C1356 374.34 1356 373.68 1356 373C1357.66 371.844 1357.66 371.844 1360.06 370.5C1364.32 368.045 1368.43 365.426 1372.51 362.68C1378.81 358.458 1385.12 354.271 1391.46 350.102C1392.38 349.495 1393.3 348.888 1394.25 348.263C1398.05 345.757 1401.86 343.251 1405.67 340.746C1419.61 331.57 1433.52 322.347 1447.39 313.064C1457.42 306.35 1467.51 299.726 1477.61 293.117C1486.77 287.123 1495.91 281.095 1505 275C1508.13 272.912 1511.26 270.827 1514.39 268.741C1517.45 266.699 1520.52 264.655 1523.57 262.605C1530.56 257.931 1537.57 253.318 1544.62 248.75C1554.29 242.488 1563.88 236.113 1573.45 229.708C1576.06 227.957 1578.69 226.208 1581.31 224.461C1585.97 221.353 1590.63 218.241 1595.29 215.129C1598.94 212.691 1602.59 210.254 1606.25 207.818C1608.13 206.563 1610.01 205.307 1611.89 204.051C1630.46 191.642 1630.46 191.642 1638.89 186.333C1641.79 184.499 1644.65 182.6 1647.5 180.687C1648.77 179.836 1650.05 178.984 1651.32 178.133C1652.04 177.651 1652.76 177.169 1653.5 176.673C1658.79 173.132 1664.08 169.596 1669.38 166.062C1670.26 165.472 1670.26 165.472 1671.16 164.869C1678.76 159.802 1686.38 154.78 1694.06 149.842C1702.76 144.243 1711.34 138.467 1719.93 132.708C1724.28 129.794 1728.63 126.89 1733 124C1733.85 123.44 1734.69 122.88 1735.56 122.303C1738.31 120.488 1741.06 118.681 1743.81 116.875C1744.69 116.294 1745.57 115.712 1746.48 115.113C1747.29 114.578 1748.11 114.043 1748.96 113.492C1750.05 112.771 1750.05 112.771 1751.18 112.035C1753 111 1753 111 1755 111C1755 110.34 1755 109.68 1755 109C1757.26 107.453 1759.52 106.027 1761.88 104.625C1767.74 101.066 1773.5 97.3908 1779.18 93.5625C1786.06 88.9593 1792.95 84.3851 1799.86 79.8359C1800.78 79.2259 1801.71 78.6159 1802.66 77.9874C1805.5 76.1162 1808.35 74.2455 1811.19 72.375C1823.48 64.2833 1835.77 56.1799 1848 48C1849.44 47.0388 1850.88 46.0778 1852.32 45.1172C1852.89 44.7391 1853.46 44.3611 1854.04 43.9717C1855.21 43.1934 1856.38 42.4154 1857.55 41.6377C1860.45 39.7002 1863.36 37.7578 1866.26 35.8047C1867.27 35.1266 1868.27 34.4486 1869.31 33.75C1870.17 33.1673 1871.04 32.5847 1871.93 31.9843C1872.94 31.3295 1873.95 30.6747 1875 30C1875.66 29.5274 1876.33 29.0548 1877.01 28.5678C1883.91 23.953 1891.03 22.1658 1899.04 20.5566C1901.2 20.1228 1903.35 19.6614 1905.5 19.1953C1916.85 16.7988 1925.84 17.0963 1937.11 19.6062Z" fill="#3D4376"/>
<path d="M1937.11 19.6062C1939.16 20.0567 1941.21 20.4769 1943.27 20.8965C1955.69 23.5653 1964.99 29.3759 1975.1 36.9062C1978.79 39.5675 1982.6 42.0086 1986.43 44.4405C1990.64 47.1149 1994.81 49.8533 1998.95 52.6328C2006.94 57.9708 2014.97 63.2397 2023 68.5C2031.56 74.1022 2040.1 79.7232 2048.61 85.405C2054.48 89.3289 2060.39 93.2039 2066.31 97.0625C2067.33 97.7244 2068.34 98.3863 2069.38 99.0683C2070.83 100.011 2070.83 100.011 2072.3 100.973C2073.16 101.532 2074.02 102.092 2074.9 102.668C2076.94 104.014 2076.94 104.014 2079 105C2079 105.66 2079 106.32 2079 107C2080.08 107.398 2080.08 107.398 2081.19 107.805C2084.03 109.013 2086.42 110.428 2088.99 112.125C2089.94 112.744 2090.88 113.363 2091.86 114.001C2092.85 114.661 2093.85 115.32 2094.88 116C2095.91 116.677 2096.94 117.354 2098 118.051C2101 120.029 2104 122.013 2107 124C2107.76 124.502 2108.52 125.004 2109.3 125.522C2112.93 127.928 2116.55 130.346 2120.16 132.769C2132.57 141.076 2145.03 149.297 2157.5 157.5C2170.9 166.31 2184.27 175.155 2197.59 184.074C2206.91 190.307 2216.27 196.45 2225.67 202.562C2232.24 206.846 2238.8 211.167 2245.32 215.536C2248.75 217.831 2252.18 220.12 2255.61 222.406C2260.94 225.957 2266.26 229.511 2271.59 233.068C2275.22 235.49 2278.84 237.911 2282.47 240.333C2284.33 241.574 2286.19 242.816 2288.05 244.058C2301.36 252.964 2301.36 252.964 2314.83 261.628C2318.01 263.636 2321.13 265.717 2324.25 267.812C2324.88 268.233 2325.51 268.653 2326.16 269.086C2328.73 270.805 2331.29 272.526 2333.86 274.247C2341.04 279.056 2348.24 283.819 2355.5 288.5C2362.77 293.185 2369.98 297.953 2377.16 302.766C2380.27 304.849 2383.39 306.924 2386.5 309C2387.75 309.833 2389 310.667 2390.25 311.5C2390.87 311.912 2391.49 312.325 2392.13 312.75C2397.75 316.5 2397.75 316.5 2399.63 317.75C2400.88 318.584 2402.13 319.418 2403.38 320.252C2406.48 322.32 2409.58 324.389 2412.68 326.465C2419.13 330.781 2425.6 335.049 2432.13 339.25C2441.38 345.214 2450.54 351.33 2459.69 357.455C2461.67 358.781 2463.66 360.103 2465.65 361.422C2471.02 364.981 2476.32 368.6 2481.55 372.359C2484.02 374.015 2486.58 375.453 2489.17 376.911C2492.87 379.113 2496.29 381.736 2499.75 384.289C2503.12 386.739 2506.51 388.908 2510.16 390.936C2513.72 392.993 2517.1 395.329 2520.5 397.625C2522.1 398.695 2523.69 399.766 2525.29 400.836C2526.48 401.634 2526.48 401.634 2527.69 402.448C2531.08 404.724 2534.48 406.987 2537.88 409.25C2539.1 410.065 2540.32 410.88 2541.54 411.695C2542.12 412.082 2542.71 412.469 2543.3 412.868C2551.19 418.125 2551.19 418.125 2553.95 419.966C2555.84 421.224 2557.72 422.482 2559.61 423.739C2564.72 427.142 2569.82 430.547 2574.92 433.956C2577.75 435.844 2580.57 437.731 2583.4 439.618C2584.84 440.582 2586.29 441.547 2587.73 442.512C2595.33 447.594 2602.95 452.644 2610.68 457.527C2613.9 459.572 2617.08 461.684 2620.25 463.812C2620.88 464.233 2621.51 464.653 2622.16 465.086C2624.73 466.805 2627.29 468.526 2629.86 470.247C2637.75 475.531 2645.67 480.744 2653.65 485.888C2661.99 491.269 2670.23 496.787 2678.46 502.332C2679.53 503.047 2680.59 503.763 2681.69 504.5C2682.62 505.129 2683.55 505.758 2684.51 506.406C2686.63 507.764 2688.72 508.933 2691 510C2691 510.66 2691 511.32 2691 512C2691.57 512.102 2692.14 512.204 2692.72 512.309C2695.44 513.133 2697.21 514.384 2699.5 516.062C2707.05 521.48 2714.77 526.609 2722.63 531.562C2726.05 533.726 2729.39 535.958 2732.69 538.312C2737.02 541.388 2741.48 544.207 2746 547C2751.26 550.253 2756.4 553.598 2761.43 557.188C2771.92 564.581 2782.77 571.466 2793.52 578.464C2800.75 583.174 2807.94 587.932 2815.11 592.736C2818.74 595.163 2822.37 597.581 2826 600C2827.53 601.018 2829.06 602.036 2830.58 603.055C2831.33 603.549 2832.07 604.044 2832.83 604.554C2838.95 608.633 2838.95 608.633 2840.84 609.892C2842.06 610.708 2843.29 611.523 2844.51 612.338C2847.69 614.453 2850.86 616.574 2854.02 618.703C2855.02 619.374 2855.02 619.374 2856.04 620.058C2857.3 620.904 2858.56 621.752 2859.82 622.602C2863.78 625.261 2867.83 627.671 2872 630C2872 630.66 2872 631.32 2872 632C2872.7 632.268 2873.4 632.536 2874.13 632.812C2877.17 634.068 2880.07 635.502 2883 637C2883 637.66 2883 638.32 2883 639C2883.71 639.254 2884.42 639.508 2885.15 639.77C2888.27 641.118 2890.87 642.773 2893.69 644.688C2894.74 645.396 2895.78 646.105 2896.86 646.836C2900.51 649.35 2904.14 651.887 2907.75 654.457C2911.36 656.927 2915.06 659.103 2919 661C2919 661.66 2919 662.32 2919 663C2919.72 663.263 2920.44 663.527 2921.18 663.798C2924.08 665.035 2926.53 666.499 2929.17 668.23C2930.15 668.869 2931.12 669.508 2932.13 670.166C2933.14 670.833 2934.15 671.5 2935.19 672.188C2936.18 672.835 2937.17 673.483 2938.19 674.15C2942.86 677.216 2947.49 680.324 2952.05 683.551C2956.32 686.562 2960.69 689.384 2965.11 692.169C2970.36 695.493 2975.55 698.909 2980.75 702.312C2981.6 702.871 2981.6 702.871 2982.47 703.44C2990.77 708.871 2999.05 714.331 3007.29 719.854C3010.42 721.95 3013.55 724.037 3016.69 726.125C3017.93 726.953 3019.17 727.781 3020.42 728.609C3021.01 729.008 3021.61 729.407 3022.23 729.818C3036 739 3036 739 3038.98 740.996C3041.89 742.924 3044.81 744.815 3047.75 746.688C3048.69 747.289 3049.64 747.891 3050.61 748.512C3052.9 749.987 3052.9 749.987 3055 751C3055 751.66 3055 752.32 3055 753C3055.99 753 3056.98 753 3058 753C3058 753.66 3058 754.32 3058 755C3058.73 755.268 3059.45 755.536 3060.2 755.812C3062.98 756.993 3065.34 758.355 3067.88 760C3068.84 760.623 3069.8 761.245 3070.79 761.887C3078.24 766.789 3085.65 771.745 3093.05 776.723C3093.71 777.167 3094.37 777.611 3095.05 778.069C3096.31 778.911 3097.56 779.755 3098.81 780.601C3102.78 783.26 3106.83 785.671 3111 788C3111 788.66 3111 789.32 3111 790C3112.06 790.382 3112.06 790.382 3113.14 790.771C3116.29 792.124 3118.96 793.783 3121.83 795.668C3122.37 796.026 3122.92 796.384 3123.48 796.753C3124.63 797.509 3125.79 798.268 3126.94 799.03C3128.66 800.171 3130.39 801.306 3132.12 802.439C3138.03 806.315 3143.86 810.278 3149.63 814.349C3153.65 817.143 3157.76 819.787 3161.88 822.438C3163.64 823.582 3165.41 824.726 3167.18 825.871C3168.01 826.414 3168.85 826.956 3169.71 827.515C3176.11 831.665 3182.43 835.913 3188.7 840.234C3189.55 840.813 3190.39 841.392 3191.25 841.988C3192.92 843.134 3194.58 844.282 3196.24 845.434C3200.73 848.523 3205.24 851.362 3210 854C3211.49 854.863 3212.97 855.736 3214.44 856.625C3215.12 857.03 3215.8 857.435 3216.5 857.852C3216.99 858.231 3217.49 858.61 3218 859C3218 859.66 3218 860.32 3218 861C3218.88 861.254 3219.77 861.508 3220.68 861.77C3224.07 863.027 3226.33 864.487 3229.19 866.688C3233.74 870.103 3238.39 873.216 3243.21 876.238C3248.21 879.393 3253.09 882.71 3258 886C3260.77 887.856 3263.54 889.71 3266.31 891.562C3267.06 892.062 3267.81 892.561 3268.58 893.076C3272.99 896.021 3277.43 898.935 3281.88 901.824C3283.39 902.802 3283.39 902.802 3284.93 903.801C3286.87 905.061 3288.82 906.318 3290.77 907.573C3293.53 909.36 3296.27 911.177 3299 913C3300.02 913.655 3301.05 914.311 3302.1 914.986C3303.6 915.991 3303.6 915.991 3305.13 917.016C3306.04 917.611 3306.95 918.207 3307.89 918.821C3312.33 923.4 3311.11 930.811 3311.03 936.855C3310.98 944.654 3311.05 952.442 3311.22 960.238C3311.24 961.291 3311.26 962.344 3311.29 963.429C3311.33 965.605 3311.38 967.781 3311.43 969.958C3311.76 985.369 3312.09 1000.77 3312 1016.19C3311.96 1023.91 3311.99 1031.63 3312.22 1039.35C3312.25 1040.47 3312.25 1040.47 3312.29 1041.61C3312.31 1042.37 3312.33 1043.14 3312.36 1043.93C3313.01 1065.61 3313.15 1087.3 3313.18 1108.99C3313.19 1111.55 3313.2 1114.12 3313.21 1116.68C3313.23 1120.77 3313.23 1124.86 3313.23 1128.94C3313.23 1130.47 3313.24 1131.99 3313.24 1133.51C3313.31 1148.64 3313.31 1148.64 3311 1155C3308.36 1157.38 3308.36 1157.38 3305.19 1159.12C3304.15 1159.73 3303.11 1160.33 3302.04 1160.95C3299 1162 3299 1162 3296.79 1161.37C3293.12 1159.57 3289.78 1157.39 3286.38 1155.12C3285.65 1154.64 3284.92 1154.16 3284.16 1153.66C3281.81 1152.11 3279.47 1150.56 3277.13 1149C3275.59 1147.99 3274.05 1146.97 3272.52 1145.96C3262.99 1139.67 3253.49 1133.34 3244 1127C3241.94 1125.62 3239.88 1124.25 3237.81 1122.88C3226 1115 3226 1115 3223.16 1113.11C3221.18 1111.79 3219.2 1110.46 3217.21 1109.14C3212.13 1105.75 3207.05 1102.36 3201.97 1098.96C3200.47 1097.97 3200.47 1097.97 3198.95 1096.95C3196.94 1095.61 3194.93 1094.26 3192.91 1092.91C3187.12 1089.04 3181.28 1085.24 3175.39 1081.52C3172.65 1079.78 3169.94 1078 3167.25 1076.19C3166.24 1075.51 3165.23 1074.84 3164.19 1074.14C3163.14 1073.43 3162.09 1072.73 3161 1072C3152.58 1066.35 3144.13 1060.77 3135.63 1055.25C3128.64 1050.71 3121.68 1046.13 3114.75 1041.5C3114.03 1041.02 3113.31 1040.54 3112.58 1040.05C3109.04 1037.68 3105.51 1035.31 3101.97 1032.94C3094.67 1028.04 3087.3 1023.28 3079.83 1018.65C3073.28 1014.58 3066.89 1010.31 3060.5 1006C3052.6 1000.7 3044.68 995.466 3036.58 990.482C3030.89 986.969 3025.34 983.261 3019.79 979.534C3014.66 976.097 3009.5 972.716 3004.31 969.375C2998.39 965.562 2992.51 961.69 2986.66 957.769C2981.97 954.632 2977.24 951.557 2972.5 948.5C2967.14 945.044 2961.8 941.552 2956.5 938C2950.66 934.09 2944.78 930.253 2938.88 926.444C2929.95 920.68 2921.05 914.868 2912.15 909.056C2909.43 907.279 2906.7 905.502 2903.98 903.725C2893.55 896.919 2883.13 890.111 2872.78 883.18C2868.56 880.356 2864.29 877.613 2859.99 874.898C2850.82 869.08 2841.71 863.169 2832.69 857.125C2824.43 851.593 2816.09 846.191 2807.75 840.781C2784.31 825.574 2784.31 825.574 2774.5 819C2767.53 814.328 2760.5 809.745 2753.46 805.165C2746.03 800.325 2738.61 795.468 2731.19 790.604C2722.34 784.805 2713.5 779.01 2704.63 773.25C2703.84 772.738 2703.05 772.227 2702.24 771.699C2698.95 769.561 2695.65 767.423 2692.36 765.286C2680.35 757.492 2668.41 749.614 2656.52 741.651C2648.56 736.33 2640.55 731.126 2632.44 726.052C2627.14 722.738 2621.93 719.325 2616.75 715.842C2611.76 712.493 2606.73 709.207 2601.69 705.938C2593.91 700.891 2586.14 695.827 2578.38 690.75C2577.28 690.035 2576.19 689.321 2575.06 688.584C2572.83 687.122 2570.6 685.66 2568.36 684.198C2547.65 670.649 2526.94 657.104 2506.19 643.625C2495.29 636.542 2484.4 629.427 2473.52 622.306C2471.12 620.73 2468.71 619.155 2466.3 617.581C2462.53 615.117 2458.77 612.653 2455 610.188C2454.38 609.784 2453.77 609.38 2453.13 608.964C2445.85 604.2 2438.6 599.409 2431.38 594.562C2425.48 590.606 2419.52 586.773 2413.5 583C2406.82 578.807 2400.21 574.515 2393.66 570.117C2386.04 565.007 2378.36 559.97 2370.69 554.938C2369.66 554.26 2369.66 554.26 2368.6 553.569C2363.74 550.378 2358.87 547.189 2354 544C2352.75 543.177 2351.49 542.354 2350.23 541.532C2345.47 538.411 2340.71 535.29 2335.94 532.17C2327.58 526.691 2319.22 521.206 2310.86 515.718C2299.47 508.239 2288.07 500.767 2276.66 493.314C2271.04 489.645 2265.43 485.969 2259.82 482.285C2248.25 474.688 2236.67 467.123 2225 459.687C2213.9 452.609 2202.93 445.34 2192 438C2172.84 425.127 2172.84 425.127 2153.4 412.672C2143.06 406.193 2132.9 399.449 2122.7 392.747C2118.35 389.887 2114 387.035 2109.64 384.187C2097.04 375.951 2084.48 367.661 2071.97 359.285C2064.91 354.56 2057.81 349.929 2050.57 345.476C2044.95 342.002 2039.46 338.338 2033.97 334.655C2027.76 330.496 2021.51 326.415 2015.25 322.355C2010.1 319.021 2004.97 315.671 1999.85 312.305C1977.07 297.034 1977.07 297.034 1953.3 283.403C1943.37 278.199 1933.86 272.185 1924.28 266.363C1922.08 265.007 1922.08 265.007 1920 264C1917.34 265.236 1917.34 265.236 1914.25 267.125C1913.35 267.655 1913.35 267.655 1912.42 268.196C1910.28 269.455 1908.14 270.727 1906 272C1903.32 273.587 1900.64 275.173 1897.96 276.758C1896.06 277.885 1894.16 279.013 1892.26 280.142C1886.74 283.413 1881.18 286.592 1875.56 289.687C1869.17 293.234 1863.1 297.151 1857.05 301.262C1852.39 304.429 1847.67 307.496 1842.94 310.562C1842.08 311.118 1841.23 311.674 1840.34 312.246C1835.47 315.409 1830.58 318.554 1825.69 321.687C1820.5 325.013 1815.36 328.416 1810.24 331.848C1803.36 336.445 1796.43 340.944 1789.5 345.454C1782.81 349.806 1776.16 354.202 1769.55 358.656C1766.68 360.567 1763.78 362.417 1760.88 364.262C1754.63 368.224 1748.44 372.262 1742.25 376.312C1741.68 376.685 1741.11 377.057 1740.53 377.44C1733.95 381.739 1727.39 386.056 1720.88 390.437C1716.23 393.561 1711.52 396.561 1706.75 399.5C1699.5 403.983 1692.4 408.693 1685.31 413.437C1675.53 419.986 1665.72 426.491 1655.88 432.937C1655.26 433.34 1654.65 433.743 1654.01 434.158C1646.24 439.246 1638.45 444.311 1630.64 449.344C1625.53 452.639 1620.47 455.996 1615.43 459.391C1611 462.368 1606.5 465.231 1601.99 468.09C1596.72 471.455 1591.49 474.885 1586.25 478.312C1585.68 478.684 1585.12 479.055 1584.53 479.437C1577.26 484.194 1570.01 488.977 1562.79 493.816C1558.52 496.669 1554.2 499.426 1549.86 502.164C1546.44 504.358 1543.06 506.613 1539.69 508.875C1535.07 511.967 1530.44 515.016 1525.75 518C1519.3 522.109 1512.95 526.366 1506.59 530.622C1497.29 536.85 1487.95 542.999 1478.46 548.934C1472.95 552.38 1467.53 555.94 1462.14 559.564C1458.62 561.926 1455.08 564.24 1451.5 566.5C1447.44 569.066 1443.43 571.7 1439.44 574.375C1432.37 579.112 1425.25 583.781 1418.13 588.438C1417.55 588.811 1416.98 589.184 1416.39 589.569C1410.54 593.395 1404.68 597.211 1398.8 600.991C1392.56 605.004 1386.36 609.086 1380.19 613.211C1379.48 613.687 1378.76 614.162 1378.03 614.652C1374.44 617.051 1370.86 619.452 1367.28 621.858C1359.11 627.331 1350.86 632.643 1342.5 637.812C1338.33 640.401 1334.25 643.135 1330.18 645.879C1326.38 648.417 1322.53 650.898 1318.69 653.375C1313.36 656.807 1308.07 660.277 1302.81 663.812C1296.8 667.855 1290.69 671.751 1284.56 675.625C1275.64 681.272 1266.83 687.075 1258.05 692.954C1250.09 698.289 1242.07 703.539 1234.03 708.764C1228.65 712.268 1223.28 715.797 1217.94 719.375C1212.28 723.164 1206.58 726.87 1200.84 730.539C1188.21 738.625 1175.66 746.824 1163.13 755.062C1162.38 755.554 1161.63 756.045 1160.86 756.552C1150.08 763.634 1139.34 770.771 1128.62 777.948C1121.89 782.452 1115.12 786.862 1108.22 791.095C1100.35 795.958 1092.69 801.161 1085.02 806.318C1078.85 810.456 1072.65 814.534 1066.39 818.538C1060.03 822.611 1053.72 826.759 1047.41 830.91C1043.9 833.223 1040.38 835.533 1036.86 837.844C1036.17 838.296 1035.48 838.748 1034.77 839.214C1029.4 842.741 1024.02 846.252 1018.63 849.75C1010.97 854.717 1003.33 859.696 995.688 864.688C994.848 865.237 994.848 865.237 993.991 865.797C986.445 870.729 978.92 875.691 971.442 880.727C968.669 882.576 965.86 884.365 963.044 886.148C956.587 890.245 950.198 894.443 943.81 898.646C940.271 900.974 936.729 903.299 933.188 905.625C932.485 906.087 931.781 906.549 931.057 907.025C918.935 914.986 906.781 922.896 894.62 930.796C870.323 946.561 870.323 946.561 846.176 962.556C841.255 965.846 836.288 969.061 831.312 972.268C823.44 977.349 815.608 982.492 807.773 987.631C800.154 992.629 792.526 997.612 784.876 1002.56C776.355 1008.08 767.921 1013.72 759.487 1019.37C752.116 1024.3 744.707 1029.15 737.158 1033.8C732.423 1036.72 727.794 1039.77 723.181 1042.88C719.375 1045.42 715.534 1047.9 711.688 1050.38C704.384 1055.09 697.14 1059.88 689.917 1064.72C676.102 1073.97 662.221 1083.11 648.334 1092.25C636.551 1100.01 624.786 1107.79 613.057 1115.63C609.8 1117.8 606.541 1119.97 603.282 1122.14C597.847 1125.77 592.415 1129.39 586.986 1133.03C583.861 1135.11 580.734 1137.2 577.602 1139.28C576.287 1140.15 574.972 1141.02 573.657 1141.89C573.012 1142.32 572.366 1142.75 571.701 1143.19C568.046 1145.62 564.413 1148.08 560.799 1150.57C558.209 1152.35 555.603 1154.11 553.001 1155.88C552.071 1156.53 551.141 1157.18 550.183 1157.86C543.837 1162.12 543.837 1162.12 539.618 1161.52C538.754 1161.02 537.891 1160.52 537.001 1160C536.302 1159.65 535.604 1159.29 534.884 1158.93C533.256 1157.95 531.629 1156.98 530.001 1156C530.001 1155.34 530.001 1154.68 530.001 1154C529.341 1154 528.681 1154 528.001 1154C527.202 1149.08 526.875 1144.41 526.872 1139.41C526.87 1138.68 526.868 1137.96 526.866 1137.21C526.862 1134.8 526.865 1132.39 526.868 1129.99C526.867 1128.28 526.866 1126.57 526.864 1124.86C526.861 1120.29 526.866 1115.72 526.872 1111.15C526.876 1108.31 526.878 1105.48 526.879 1102.64C526.89 1077.86 527.035 1053.08 527.645 1028.3C527.891 1018.3 528.027 1008.32 528.001 998.317C527.978 985.77 528.14 973.224 528.318 960.678C528.358 957.821 528.393 954.963 528.423 952.106C528.46 948.591 528.506 945.076 528.559 941.561C528.586 939.606 528.604 937.651 528.622 935.695C528.652 933.915 528.652 933.915 528.682 932.099C528.695 931.063 528.709 930.026 528.722 928.958C529.089 925.067 529.702 921.308 532.526 918.464C533.112 918.102 533.698 917.74 534.302 917.367C535.273 916.747 535.273 916.747 536.265 916.113C536.941 915.705 537.617 915.296 538.313 914.875C539.644 914.041 540.974 913.205 542.302 912.367C542.939 911.969 543.576 911.571 544.232 911.161C546.615 909.597 548.78 907.785 551.001 906C553.271 904.669 555.581 903.461 557.915 902.246C559.972 901.017 561.34 899.706 563.001 898C564.665 897.021 566.332 896.046 568.024 895.117C570.86 893.514 573.574 891.732 576.302 889.953C578.001 889 578.001 889 580.001 889C580.001 888.34 580.001 887.68 580.001 887C581.846 885.615 581.846 885.615 584.427 884.023C585.363 883.439 586.299 882.855 587.264 882.253C588.27 881.633 589.277 881.013 590.313 880.375C599.264 874.812 599.264 874.812 607.876 868.75C612.678 865.145 617.704 862.004 622.81 858.855C629.403 854.78 635.843 850.494 642.271 846.164C644.904 844.392 647.547 842.634 650.188 840.875C651.633 839.912 651.633 839.912 653.106 838.93C662.001 833 662.001 833 665.009 830.996C666.984 829.678 668.958 828.358 670.931 827.035C676.254 823.47 681.605 819.955 687.001 816.5C695.88 810.808 704.647 805.002 713.188 798.812C717.508 795.689 721.836 792.871 726.552 790.387C731.893 787.363 736.917 783.786 741.998 780.348C743.999 779.001 746.008 777.668 748.02 776.34C755.833 771.205 755.833 771.205 763.376 765.688C766.628 763.178 770.048 761.275 773.661 759.336C777.059 757.396 780.193 755.13 783.376 752.859C787.544 749.907 791.812 747.105 796.069 744.283C799.19 742.21 802.307 740.131 805.424 738.052C807.227 736.849 809.031 735.647 810.835 734.447C815.329 731.455 819.815 728.454 824.286 725.43C825.113 724.872 825.94 724.315 826.791 723.741C828.361 722.683 829.928 721.621 831.492 720.556C832.19 720.086 832.887 719.617 833.606 719.133C834.216 718.719 834.826 718.306 835.455 717.879C837.001 717 837.001 717 839.001 717C839.001 716.34 839.001 715.68 839.001 715C841.906 712.958 843.402 712 847.001 712C847.001 711.34 847.001 710.68 847.001 710C848.012 709.435 849.022 708.871 850.063 708.289C853.822 706.14 857.416 703.798 861.001 701.375C862.33 700.483 863.66 699.591 864.989 698.699C865.659 698.249 866.329 697.798 867.019 697.333C872.665 693.534 878.326 689.757 884.001 686C884.851 685.437 885.701 684.874 886.576 684.294C889.318 682.482 892.065 680.678 894.813 678.875C896.132 678.003 896.132 678.003 897.476 677.114C898.705 676.311 898.705 676.311 899.958 675.492C900.69 675.011 901.422 674.53 902.176 674.035C904.001 673 904.001 673 906.001 673C906.001 672.34 906.001 671.68 906.001 671C907.517 670.165 907.517 670.165 909.063 669.312C912.903 667.119 916.444 664.62 920.001 662C923.467 659.447 926.905 656.996 930.661 654.883C933.408 653.334 935.898 651.73 938.438 649.875C942.832 646.747 947.348 643.888 951.938 641.062C956.59 638.194 961.118 635.272 965.501 632C970.438 628.319 975.579 625.082 980.815 621.852C987.358 617.807 993.749 613.555 1000.13 609.259C1003.31 607.121 1006.5 604.999 1009.69 602.875C1010.94 602.039 1012.2 601.203 1013.45 600.367C1023 594 1023 594 1025.94 592.043C1028.09 590.61 1030.23 589.176 1032.38 587.738C1040.4 582.367 1048.47 577.084 1056.57 571.833C1061.8 568.441 1067.01 565.023 1072.19 561.562C1072.79 561.159 1073.4 560.755 1074.02 560.338C1076.64 558.588 1079.25 556.828 1081.85 555.051C1082.66 554.498 1083.48 553.945 1084.31 553.375C1084.99 552.908 1085.67 552.442 1086.36 551.961C1088 551 1088 551 1090 551C1090 550.34 1090 549.68 1090 549C1091.01 548.436 1092.02 547.871 1093.05 547.29C1096.85 545.119 1100.51 542.777 1104.16 540.367C1105.15 539.712 1105.15 539.712 1106.17 539.044C1108.28 537.656 1110.39 536.266 1112.5 534.875C1113.88 533.966 1115.27 533.057 1116.65 532.148C1125.19 526.53 1133.71 520.873 1142.21 515.193C1145.09 513.273 1147.97 511.355 1150.84 509.437C1152.48 508.345 1152.48 508.345 1154.16 507.23C1156.46 505.693 1158.77 504.156 1161.07 502.62C1168.17 497.888 1168.17 497.888 1175.27 493.145C1183.64 487.536 1192.08 482.019 1200.53 476.527C1207.39 472.068 1214.2 467.547 1221 463C1255.06 440.234 1255.06 440.234 1265.54 433.521C1268.81 431.427 1272.05 429.301 1275.27 427.129C1275.97 426.657 1276.67 426.185 1277.39 425.698C1278.72 424.801 1280.04 423.899 1281.36 422.993C1285.78 420 1285.78 420 1288 420C1288 419.34 1288 418.68 1288 418C1294.75 414 1294.75 414 1297 414C1297 413.34 1297 412.68 1297 412C1299.16 410.579 1299.16 410.579 1302.18 408.918C1308.45 405.362 1314.44 401.492 1320.42 397.462C1322.17 396.284 1323.92 395.112 1325.67 393.94C1331.02 390.359 1336.35 386.763 1341.68 383.16C1342.52 382.598 1343.35 382.037 1344.21 381.458C1345.74 380.427 1347.27 379.392 1348.8 378.353C1353.78 375 1353.78 375 1356 375C1356 374.34 1356 373.68 1356 373C1357.66 371.844 1357.66 371.844 1360.06 370.5C1364.32 368.045 1368.44 365.426 1372.51 362.68C1378.81 358.458 1385.13 354.271 1391.46 350.102C1392.38 349.495 1393.3 348.888 1394.25 348.263C1398.06 345.757 1401.86 343.251 1405.67 340.746C1419.61 331.57 1433.52 322.347 1447.39 313.064C1457.42 306.35 1467.51 299.726 1477.61 293.117C1486.77 287.123 1495.91 281.095 1505 275C1508.13 272.912 1511.26 270.827 1514.39 268.741C1517.45 266.699 1520.52 264.655 1523.58 262.605C1530.56 257.931 1537.57 253.318 1544.63 248.75C1554.29 242.488 1563.88 236.113 1573.45 229.708C1576.07 227.957 1578.69 226.208 1581.31 224.461C1585.97 221.353 1590.63 218.241 1595.3 215.129C1598.95 212.691 1602.6 210.254 1606.25 207.818C1608.13 206.563 1610.01 205.307 1611.89 204.051C1630.46 191.642 1630.46 191.642 1638.89 186.333C1641.79 184.499 1644.65 182.6 1647.5 180.687C1648.77 179.836 1650.05 178.984 1651.32 178.133C1652.04 177.651 1652.76 177.169 1653.5 176.673C1658.79 173.132 1664.08 169.596 1669.38 166.062C1670.26 165.472 1670.26 165.472 1671.16 164.869C1678.76 159.802 1686.38 154.78 1694.06 149.842C1702.76 144.243 1711.34 138.467 1719.93 132.708C1724.28 129.794 1728.64 126.89 1733 124C1733.85 123.44 1734.69 122.88 1735.56 122.303C1738.31 120.488 1741.06 118.681 1743.81 116.875C1744.69 116.294 1745.57 115.712 1746.48 115.113C1747.3 114.578 1748.11 114.043 1748.96 113.492C1750.06 112.771 1750.06 112.771 1751.18 112.035C1753 111 1753 111 1755 111C1755 110.34 1755 109.68 1755 109C1757.26 107.453 1759.52 106.027 1761.88 104.625C1767.74 101.066 1773.5 97.3908 1779.18 93.5625C1786.06 88.9593 1792.95 84.3851 1799.86 79.8359C1800.78 79.2259 1801.71 78.6159 1802.66 77.9874C1805.5 76.1162 1808.35 74.2455 1811.19 72.375C1823.48 64.2833 1835.77 56.1799 1848 48C1849.44 47.0388 1850.88 46.0778 1852.33 45.1172C1852.89 44.7391 1853.46 44.3611 1854.04 43.9717C1855.21 43.1934 1856.38 42.4154 1857.55 41.6377C1860.46 39.7002 1863.36 37.7578 1866.26 35.8047C1867.27 35.1266 1868.27 34.4486 1869.31 33.75C1870.18 33.1673 1871.04 32.5847 1871.93 31.9843C1872.94 31.3295 1873.96 30.6747 1875 30C1875.66 29.5274 1876.33 29.0548 1877.01 28.5678C1883.91 23.953 1891.03 22.1658 1899.04 20.5566C1901.2 20.1228 1903.35 19.6614 1905.5 19.1953C1916.85 16.7988 1925.84 17.0963 1937.11 19.6062Z" fill="#65748B"/>
<path d="M625 2161C707.5 2161 790 2161 875 2161C875 2292.06 875 2292.06 874.837 2338.49C874.811 2345.87 874.788 2353.25 874.765 2360.63C874.721 2374.54 874.676 2388.44 874.63 2402.34C874.513 2437.62 874.403 2472.9 874.294 2508.17C874.285 2511.06 874.276 2513.94 874.267 2516.83C874.07 2580.46 873.903 2644.08 873.754 2707.71C873.746 2711.01 873.738 2714.31 873.731 2717.61C873.682 2738.51 873.633 2759.41 873.584 2780.31C873.09 2992.72 873.09 2992.72 872 3233C868.412 3232.34 865.821 3231.54 862.699 3229.63C861.895 3229.14 861.092 3228.66 860.264 3228.15C859.414 3227.63 858.563 3227.1 857.688 3226.56C856.797 3226.02 855.907 3225.48 854.99 3224.92C848.992 3221.26 843.031 3217.54 837.083 3213.79C827.067 3207.5 816.876 3201.49 806.711 3195.45C796.162 3189.17 796.162 3189.17 791.25 3185.81C787.337 3183.15 783.261 3180.93 779.09 3178.7C773.543 3175.65 768.151 3172.33 762.738 3169.05C756.534 3165.29 750.316 3161.57 744 3158C744 3157.34 744 3156.68 744 3156C743.417 3155.87 742.835 3155.75 742.234 3155.62C730.615 3152.39 719.139 3142.66 709.062 3136.19C705.257 3133.76 701.392 3131.52 697.426 3129.37C694.503 3127.72 691.662 3125.96 688.812 3124.19C684.32 3121.4 679.794 3118.72 675.188 3116.12C669.612 3112.98 664.178 3109.64 658.766 3106.22C652.109 3102.03 645.371 3097.98 638.625 3093.94C636.956 3092.94 636.956 3092.94 635.253 3091.91C630.199 3088.83 630.199 3088.83 625 3086C625 2780.75 625 2475.5 625 2161Z" fill="#292F59"/>
<path d="M2965 2161C2994.49 2160.98 3023.98 2160.96 3053.46 2160.95C3059.42 2160.95 3065.37 2160.95 3071.33 2160.94C3072.08 2160.94 3072.82 2160.94 3073.59 2160.94C3085.66 2160.94 3097.73 2160.93 3109.79 2160.92C3122.17 2160.91 3134.54 2160.91 3146.92 2160.91C3154.56 2160.9 3162.2 2160.9 3169.84 2160.89C3175.69 2160.89 3181.54 2160.89 3187.39 2160.89C3189.8 2160.89 3192.21 2160.88 3194.61 2160.88C3197.89 2160.88 3201.16 2160.88 3204.43 2160.88C3205.39 2160.88 3206.36 2160.87 3207.35 2160.87C3208.66 2160.87 3208.66 2160.87 3209.99 2160.88C3210.74 2160.88 3211.5 2160.88 3212.28 2160.88C3214 2161 3214 2161 3215 2162C3215.1 2164.01 3215.13 2166.02 3215.13 2168.04C3215.13 2169 3215.13 2169 3215.14 2169.98C3215.14 2172.16 3215.14 2174.35 3215.14 2176.53C3215.14 2178.1 3215.14 2179.67 3215.15 2181.25C3215.15 2185.61 3215.15 2189.98 3215.15 2194.35C3215.15 2199.08 3215.16 2203.82 3215.17 2208.55C3215.18 2217.96 3215.18 2227.37 3215.19 2236.77C3215.19 2248.04 3215.2 2259.3 3215.21 2270.56C3215.24 2297.78 3215.26 2325 3215.27 2352.23C3215.27 2361.24 3215.28 2370.25 3215.28 2379.27C3215.31 2426.46 3215.33 2473.65 3215.34 2520.84C3215.34 2524.29 3215.34 2527.75 3215.34 2531.2C3215.34 2532.23 3215.34 2532.23 3215.34 2533.28C3215.35 2540.23 3215.35 2547.17 3215.35 2554.12C3215.35 2555.51 3215.35 2556.9 3215.35 2558.29C3215.36 2603.03 3215.39 2647.76 3215.43 2692.49C3215.46 2724.63 3215.49 2756.76 3215.5 2788.9C3215.5 2789.89 3215.5 2789.89 3215.5 2790.9C3215.51 2804.75 3215.51 2818.6 3215.51 2832.44C3215.51 2838.93 3215.51 2845.41 3215.51 2851.9C3215.51 2853.17 3215.51 2854.45 3215.51 2855.76C3215.52 2876.34 3215.54 2896.92 3215.56 2917.5C3215.59 2938.17 3215.6 2958.83 3215.59 2979.5C3215.58 2991.79 3215.59 3004.08 3215.62 3016.38C3215.63 3024.58 3215.63 3032.77 3215.62 3040.97C3215.61 3045.65 3215.61 3050.33 3215.63 3055.01C3215.65 3059.26 3215.65 3063.51 3215.62 3067.76C3215.62 3069.3 3215.63 3070.83 3215.64 3072.37C3215.66 3074.44 3215.64 3076.51 3215.62 3078.59C3215.62 3079.74 3215.62 3080.89 3215.62 3082.07C3215 3085 3215 3085 3212.66 3087.33C3209.85 3089.1 3207.16 3090 3204 3091C3203.67 3091.66 3203.34 3092.32 3203 3093C3201.43 3094.01 3199.82 3094.96 3198.19 3095.87C3192.44 3099.16 3186.74 3102.53 3181.06 3105.94C3179.77 3106.71 3179.77 3106.71 3178.45 3107.5C3174.62 3109.8 3170.8 3112.12 3167 3114.48C3166.41 3114.85 3165.82 3115.21 3165.22 3115.59C3163.68 3116.55 3162.16 3117.51 3160.63 3118.48C3158.14 3119.92 3155.7 3121.01 3153 3122C3153 3122.66 3153 3123.32 3153 3124C3151.89 3124.53 3151.89 3124.53 3150.76 3125.07C3144.27 3128.23 3138.18 3131.66 3132.18 3135.68C3130 3137 3130 3137 3128 3137C3128 3137.66 3128 3138.32 3128 3139C3126.25 3139.85 3126.25 3139.85 3124.46 3140.71C3120.36 3142.76 3116.53 3145.09 3112.69 3147.56C3106.41 3151.54 3100.05 3155.38 3093.63 3159.12C3092.39 3159.85 3092.39 3159.85 3091.12 3160.6C3090.35 3161.04 3089.58 3161.49 3088.79 3161.95C3087.76 3162.54 3087.76 3162.54 3086.72 3163.15C3085 3164 3085 3164 3083 3164C3083 3164.66 3083 3165.32 3083 3166C3082.04 3166.51 3082.04 3166.51 3081.05 3167.03C3074.59 3170.5 3068.33 3174.2 3062.1 3178.07C3058.74 3180.16 3055.35 3182.19 3051.95 3184.21C3049.45 3185.73 3046.97 3187.27 3044.48 3188.82C3043.68 3189.32 3042.87 3189.82 3042.03 3190.34C3040.4 3191.35 3038.78 3192.37 3037.16 3193.39C3036.4 3193.86 3035.65 3194.32 3034.88 3194.8C3034.2 3195.23 3033.53 3195.65 3032.83 3196.09C3031 3197 3031 3197 3028 3197C3028 3197.66 3028 3198.32 3028 3199C3027.46 3199.29 3026.93 3199.59 3026.37 3199.89C3020.59 3203.08 3014.9 3206.4 3009.25 3209.81C3008.37 3210.34 3007.5 3210.87 3006.6 3211.41C3001.78 3214.31 2996.97 3217.23 2992.19 3220.19C2991.19 3220.8 2990.2 3221.41 2989.18 3222.04C2987.46 3223.1 2985.75 3224.16 2984.05 3225.23C2982 3226.51 2979.94 3227.79 2977.88 3229.06C2977.24 3229.47 2976.59 3229.88 2975.93 3230.3C2974.34 3231.28 2972.67 3232.15 2971 3233C2970.01 3232.67 2969.02 3232.34 2968 3232C2968 3230.68 2967.99 3229.37 2967.99 3228.01C2967.82 3169.2 2967.64 3110.39 2967.47 3051.57C2967.47 3050.66 2967.47 3049.75 2967.46 3048.82C2967.4 3029 2967.35 3009.19 2967.29 2989.37C2967.26 2979.63 2967.23 2969.9 2967.2 2960.16C2967.2 2959.19 2967.2 2958.23 2967.19 2957.23C2967.11 2928.45 2967.02 2899.67 2966.94 2870.89C2966.81 2828.09 2966.69 2785.29 2966.56 2742.49C2966.54 2735.99 2966.52 2729.49 2966.5 2722.99C2966.27 2643.65 2966.03 2564.3 2965.73 2484.96C2965.71 2480.15 2965.69 2475.34 2965.68 2470.53C2965.53 2430.12 2965.53 2430.12 2965.37 2389.7C2965.3 2373.87 2965.24 2358.04 2965.18 2342.21C2965.18 2340.96 2965.17 2339.71 2965.17 2338.43C2964.95 2279.28 2964.95 2220.14 2965 2161Z" fill="#292F59"/>
<path d="M1479 760C1485.99 760.539 1492.1 762.068 1498.74 764.273C1499.74 764.598 1500.74 764.922 1501.77 765.257C1504.96 766.288 1508.13 767.331 1511.31 768.375C1514.48 769.411 1517.65 770.444 1520.82 771.472C1522.78 772.11 1524.74 772.752 1526.71 773.399C1533.4 775.581 1540.15 777.369 1547 779C1547 779.33 1547 779.66 1547 780C1544.6 780 1542.2 779.999 1539.8 779.992C1538.1 779.997 1536.39 780.018 1534.69 780.07C1514.37 780.572 1496.82 770.663 1479 762C1479 761.34 1479 760.68 1479 760Z" fill="#50687B"/>
<path d="M2361 760C2361 760.66 2361 761.32 2361 762C2359.47 762.674 2359.47 762.674 2357.91 763.361C2354.13 765.025 2350.36 766.689 2346.58 768.354C2344.95 769.075 2343.31 769.795 2341.68 770.516C2339.33 771.551 2336.98 772.586 2334.63 773.621C2333.9 773.944 2333.17 774.267 2332.41 774.6C2328.68 776.24 2328.68 776.24 2325 778C2316.37 779.172 2307.69 779.116 2299 779C2302.11 776.925 2304.71 776.001 2308.27 774.863C2308.89 774.663 2309.51 774.462 2310.15 774.256C2312.18 773.603 2314.22 772.957 2316.25 772.313C2317.65 771.866 2319.05 771.418 2320.45 770.971C2323.97 769.851 2327.49 768.738 2331.01 767.629C2332.88 767.037 2334.76 766.443 2336.63 765.848C2339.79 764.848 2342.96 763.859 2346.12 762.875C2347.06 762.58 2347.99 762.285 2348.95 761.982C2349.82 761.717 2350.68 761.452 2351.57 761.18C2352.68 760.835 2352.68 760.835 2353.81 760.484C2356.26 759.942 2358.5 759.917 2361 760Z" fill="#486175"/>
<path d="M2620 2505C2620.33 2505 2620.66 2505 2621 2505C2621.66 2509.29 2622.32 2513.58 2623 2518C2621.05 2516.05 2620.15 2514.47 2619 2512C2618.01 2512.33 2617.02 2512.66 2616 2513C2617.75 2507.25 2617.75 2507.25 2620 2505Z" fill="#4A508F"/>
<path d="M987 3310C987 3314.03 985.359 3315.81 983 3319C982.01 3319.5 982.01 3319.5 981 3320C981.188 3316.69 981.188 3316.69 982 3313C984.562 3311.06 984.562 3311.06 987 3310Z" fill="#2B2E5A"/>
<path d="M2856 3310C2858.19 3313.28 2859 3316.21 2860 3320C2858.06 3319.19 2858.06 3319.19 2856 3318C2854.9 3314.71 2855.2 3313.29 2856 3310Z" fill="#303363"/>
<g filter="url(#filter0_f_177_5)">
<path d="M2980.96 963.408L2607.41 976.114L2687.46 816.377L2185.63 562.362L2101.25 730.677C1899.36 656.957 1703.57 645.191 1567.97 684.995L1567.99 685.08C1548.6 690.618 1530.78 698.87 1513.99 706.489C1461.37 730.557 1423.18 763.876 1402.72 804.601L1930.45 1071.57L1852.6 1226.93L1951.77 1277.1C1590.89 1938.79 1146.59 2530.86 968.335 3250.48L1270.32 3401.77C1746.59 2803.43 1937.46 2134.65 2260.68 1433.38L2354.49 1480.84L2434.54 1321.1L2648.07 1627.77L2907.07 1757.43C3164.43 1588.41 3250.25 1357.81 3240.09 1092.78L2981.07 963.034L2980.96 963.408Z" fill="white" fill-opacity="0.5"/>
</g>
<g filter="url(#filter1_d_177_5)">
<path d="M2926.28 1016.12L2566.66 1028.36L2643.72 874.584L2160.62 630.055L2079.39 792.086C1885.03 721.12 1696.55 709.794 1566.01 748.113L1566.02 748.195C1547.36 753.526 1530.2 761.47 1514.04 768.804C1463.38 791.974 1426.62 824.05 1406.92 863.254L1914.96 1120.26L1840.01 1269.81L1935.48 1318.11C1588.06 1955.1 1160.34 2525.06 988.723 3217.83L1279.44 3363.47C1737.95 2787.46 1921.7 2143.64 2232.87 1468.56L2323.18 1514.24L2400.24 1360.47L2605.8 1655.69L2855.14 1780.5C3102.9 1617.79 3185.52 1395.8 3175.74 1140.67L2926.38 1015.76L2926.28 1016.12Z" fill="white"/>
</g>
<defs>
<filter id="filter0_f_177_5" x="868.334" y="462.362" width="2472.55" height="3039.41" filterUnits="userSpaceOnUse" color-interpolation-filters="sRGB">
<feFlood flood-opacity="0" result="BackgroundImageFix"/>
<feBlend mode="normal" in="SourceGraphic" in2="BackgroundImageFix" result="shape"/>
<feGaussianBlur stdDeviation="50" result="effect1_foregroundBlur_177_5"/>
</filter>
<filter id="filter1_d_177_5" x="984.723" y="630.055" width="2195.78" height="2741.41" filterUnits="userSpaceOnUse" color-interpolation-filters="sRGB">
<feFlood flood-opacity="0" result="BackgroundImageFix"/>
<feColorMatrix in="SourceAlpha" type="matrix" values="0 0 0 0 0 0 0 0 0 0 0 0 0 0 0 0 0 0 127 0" result="hardAlpha"/>
<feOffset dy="4"/>
<feGaussianBlur stdDeviation="2"/>
<feComposite in2="hardAlpha" operator="out"/>
<feColorMatrix type="matrix" values="0 0 0 0 0 0 0 0 0 0 0 0 0 0 0 0 0 0 0.25 0"/>
<feBlend mode="normal" in2="BackgroundImageFix" result="effect1_dropShadow_177_5"/>
<feBlend mode="normal" in="SourceGraphic" in2="effect1_dropShadow_177_5" result="shape"/>
</filter>
</defs>
</svg>
